<svg xmlns="http://www.w3.org/2000/svg" xmlns:xlink="http://www.w3.org/1999/xlink" id="svg" version="1.1" width="400" height="400" viewBox="0, 0, 400,400"><g id="svgg"><path id="path0" d="M315.800 12.800 C 315.661 13.025,313.756 13.200,311.456 13.200 C 309.203 13.200,307.189 13.365,306.980 13.566 C 306.771 13.768,306.155 13.993,305.610 14.066 C 305.054 14.141,304.412 14.619,304.145 15.157 C 303.884 15.683,302.844 16.964,301.835 18.005 C 300.826 19.045,300.000 20.061,300.000 20.263 C 300.000 20.465,299.100 21.517,298.000 22.600 C 296.900 23.683,296.000 24.764,296.000 25.002 C 296.000 25.965,291.482 29.600,290.285 29.600 C 289.545 29.600,287.607 30.539,287.603 30.900 C 287.601 31.065,287.060 31.200,286.400 31.200 C 285.740 31.200,285.200 31.380,285.200 31.600 C 285.200 31.820,284.761 32.000,284.224 32.000 C 283.687 32.000,283.136 32.180,283.000 32.400 C 282.864 32.620,282.324 32.800,281.800 32.800 C 281.276 32.800,280.736 32.980,280.600 33.200 C 280.464 33.420,279.924 33.600,279.400 33.600 C 278.876 33.600,278.336 33.780,278.200 34.000 C 278.064 34.220,277.524 34.400,277.000 34.400 C 276.476 34.400,275.936 34.580,275.800 34.800 C 275.664 35.020,275.209 35.200,274.789 35.200 C 274.368 35.200,273.383 35.560,272.600 36.000 C 271.817 36.440,270.832 36.800,270.411 36.800 C 269.991 36.800,269.536 36.980,269.400 37.200 C 269.264 37.420,268.724 37.600,268.200 37.600 C 267.676 37.600,267.136 37.780,267.000 38.000 C 266.864 38.220,266.401 38.400,265.971 38.400 C 265.541 38.400,264.877 38.563,264.495 38.762 C 264.113 38.961,261.730 39.798,259.200 40.622 C 256.670 41.447,254.420 42.242,254.200 42.389 C 253.980 42.536,252.990 42.886,252.000 43.167 C 251.010 43.448,249.887 43.840,249.505 44.039 C 249.123 44.238,248.459 44.400,248.029 44.400 C 247.599 44.400,247.136 44.580,247.000 44.800 C 246.864 45.020,246.324 45.200,245.800 45.200 C 245.276 45.200,244.736 45.380,244.600 45.600 C 244.464 45.820,243.924 46.000,243.400 46.000 C 242.876 46.000,242.336 46.180,242.200 46.400 C 242.064 46.620,241.524 46.800,241.000 46.800 C 240.476 46.800,239.936 46.980,239.800 47.200 C 239.664 47.420,239.113 47.600,238.576 47.600 C 238.039 47.600,237.600 47.780,237.600 48.000 C 237.600 48.220,237.251 48.400,236.824 48.400 C 236.397 48.400,235.936 48.580,235.800 48.800 C 235.664 49.020,235.113 49.200,234.576 49.200 C 234.039 49.200,233.600 49.380,233.600 49.600 C 233.600 49.820,233.060 50.000,232.400 50.000 C 231.740 50.000,231.200 50.180,231.200 50.400 C 231.200 50.620,230.761 50.800,230.224 50.800 C 229.687 50.800,229.136 50.980,229.000 51.200 C 228.864 51.420,228.324 51.600,227.800 51.600 C 227.276 51.600,226.736 51.780,226.600 52.000 C 226.464 52.220,225.924 52.400,225.400 52.400 C 224.876 52.400,224.336 52.580,224.200 52.800 C 224.064 53.020,223.609 53.200,223.189 53.200 C 222.768 53.200,221.783 53.560,221.000 54.000 C 220.217 54.440,219.232 54.800,218.811 54.800 C 218.391 54.800,217.936 54.980,217.800 55.200 C 217.664 55.420,217.124 55.600,216.600 55.600 C 216.076 55.600,215.551 55.756,215.432 55.947 C 215.314 56.139,214.539 56.407,213.709 56.544 C 212.879 56.681,211.720 57.046,211.133 57.356 C 210.546 57.665,209.332 58.043,208.435 58.194 C 207.538 58.346,206.703 58.634,206.578 58.835 C 206.454 59.036,206.009 59.200,205.589 59.200 C 205.168 59.200,204.183 59.560,203.400 60.000 C 202.617 60.440,201.632 60.800,201.211 60.800 C 200.791 60.800,200.336 60.980,200.200 61.200 C 200.064 61.420,199.524 61.600,199.000 61.600 C 198.476 61.600,197.936 61.780,197.800 62.000 C 197.664 62.220,197.124 62.400,196.600 62.400 C 196.076 62.400,195.536 62.580,195.400 62.800 C 195.264 63.020,194.724 63.200,194.200 63.200 C 193.676 63.200,193.136 63.380,193.000 63.600 C 192.864 63.820,192.324 64.000,191.800 64.000 C 191.276 64.000,190.736 64.180,190.600 64.400 C 190.464 64.620,190.020 64.800,189.614 64.800 C 188.976 64.800,187.798 65.292,184.705 66.850 C 184.323 67.043,183.646 67.200,183.200 67.200 C 182.754 67.200,182.032 67.380,181.595 67.600 C 181.158 67.820,180.442 68.180,180.005 68.400 C 179.568 68.620,178.859 68.800,178.429 68.800 C 177.999 68.800,177.536 68.980,177.400 69.200 C 177.264 69.420,176.801 69.600,176.371 69.600 C 175.941 69.600,175.277 69.762,174.895 69.961 C 174.513 70.160,173.390 70.556,172.400 70.842 C 171.410 71.129,170.010 71.686,169.288 72.081 C 168.566 72.477,167.709 72.800,167.382 72.800 C 167.056 72.800,166.477 72.963,166.095 73.163 C 165.072 73.698,161.222 74.800,160.378 74.800 C 159.976 74.800,159.543 74.969,159.416 75.174 C 159.288 75.380,157.883 75.937,156.292 76.412 C 154.701 76.887,152.708 77.618,151.862 78.037 C 151.016 78.457,149.992 78.800,149.586 78.800 C 149.180 78.800,148.736 78.980,148.600 79.200 C 148.464 79.420,147.924 79.600,147.400 79.600 C 146.876 79.600,146.336 79.780,146.200 80.000 C 146.064 80.220,145.524 80.400,145.000 80.400 C 144.476 80.400,143.936 80.580,143.800 80.800 C 143.664 81.020,143.124 81.200,142.600 81.200 C 142.076 81.200,141.536 81.380,141.400 81.600 C 141.264 81.820,140.724 82.000,140.200 82.000 C 139.676 82.000,139.136 82.180,139.000 82.400 C 138.864 82.620,138.439 82.800,138.056 82.800 C 137.181 82.800,135.207 83.699,135.203 84.100 C 135.201 84.265,134.660 84.400,134.000 84.400 C 133.340 84.400,132.800 84.580,132.800 84.800 C 132.800 85.020,132.361 85.200,131.824 85.200 C 131.287 85.200,130.736 85.380,130.600 85.600 C 130.464 85.820,129.924 86.000,129.400 86.000 C 128.876 86.000,128.336 86.180,128.200 86.400 C 128.064 86.620,127.524 86.800,127.000 86.800 C 126.476 86.800,125.936 86.980,125.800 87.200 C 125.664 87.420,125.124 87.600,124.600 87.600 C 124.076 87.600,123.536 87.780,123.400 88.000 C 123.264 88.220,122.724 88.400,122.200 88.400 C 121.676 88.400,121.136 88.580,121.000 88.800 C 120.864 89.020,120.420 89.200,120.014 89.200 C 119.608 89.200,118.584 89.537,117.738 89.948 C 116.892 90.360,114.040 91.370,111.400 92.192 C 108.760 93.014,106.287 93.848,105.905 94.044 C 105.523 94.240,104.859 94.400,104.429 94.400 C 103.999 94.400,103.536 94.580,103.400 94.800 C 103.264 95.020,102.809 95.200,102.389 95.200 C 101.968 95.200,100.983 95.560,100.200 96.000 C 99.417 96.440,98.432 96.800,98.011 96.800 C 97.591 96.800,97.136 96.980,97.000 97.200 C 96.864 97.420,96.324 97.600,95.800 97.600 C 95.276 97.600,94.736 97.780,94.600 98.000 C 94.464 98.220,93.924 98.400,93.400 98.400 C 92.876 98.400,92.336 98.580,92.200 98.800 C 92.064 99.020,91.524 99.200,91.000 99.200 C 90.476 99.200,89.936 99.380,89.800 99.600 C 89.664 99.820,89.124 100.000,88.600 100.000 C 88.076 100.000,87.536 100.180,87.400 100.400 C 87.264 100.620,86.713 100.800,86.176 100.800 C 85.639 100.800,85.200 100.980,85.200 101.200 C 85.200 101.420,84.851 101.600,84.424 101.600 C 83.997 101.600,83.536 101.780,83.400 102.000 C 83.264 102.220,82.713 102.400,82.176 102.400 C 81.639 102.400,81.200 102.580,81.200 102.800 C 81.200 103.020,80.840 103.200,80.400 103.200 C 79.960 103.200,79.600 103.380,79.600 103.600 C 79.600 103.820,78.981 104.000,78.224 104.000 C 77.467 104.000,76.736 104.180,76.600 104.400 C 76.464 104.620,75.924 104.800,75.400 104.800 C 74.876 104.800,74.336 104.980,74.200 105.200 C 74.064 105.420,73.549 105.600,73.056 105.600 C 72.563 105.600,71.989 105.749,71.780 105.930 C 71.571 106.112,70.590 106.505,69.600 106.802 C 68.610 107.100,67.620 107.462,67.400 107.606 C 67.180 107.751,65.920 108.191,64.600 108.584 C 63.280 108.978,61.660 109.536,61.000 109.824 C 60.340 110.113,59.170 110.523,58.400 110.735 C 56.045 111.384,53.076 112.477,51.546 113.258 C 50.746 113.666,49.721 114.000,49.269 114.000 C 48.817 114.000,48.336 114.180,48.200 114.400 C 48.064 114.620,47.524 114.800,47.000 114.800 C 46.476 114.800,45.936 114.980,45.800 115.200 C 45.664 115.420,45.201 115.600,44.771 115.600 C 44.341 115.600,43.677 115.769,43.295 115.975 C 42.511 116.398,38.112 117.978,34.800 119.027 C 33.590 119.410,32.240 119.938,31.800 120.200 C 30.991 120.683,23.317 123.152,20.000 123.996 C 16.807 124.810,16.684 125.019,16.478 130.004 C 16.378 132.431,16.140 134.514,15.948 134.632 C 15.757 134.750,15.600 136.266,15.600 138.000 C 15.600 139.734,15.420 141.264,15.200 141.400 C 14.979 141.536,14.800 143.330,14.800 145.400 C 14.800 147.470,14.621 149.264,14.400 149.400 C 14.180 149.536,14.000 151.246,14.000 153.200 C 14.000 155.154,13.820 156.864,13.600 157.000 C 13.380 157.136,13.200 158.756,13.200 160.600 C 13.200 162.444,13.020 164.064,12.800 164.200 C 12.579 164.336,12.400 166.130,12.400 168.200 C 12.400 170.264,12.245 172.049,12.055 172.166 C 11.865 172.284,11.675 173.953,11.632 175.876 C 11.590 177.799,11.409 179.558,11.231 179.786 C 11.053 180.014,10.788 182.810,10.643 186.000 C 10.498 189.190,10.130 192.866,9.826 194.169 C 9.316 196.354,9.382 199.200,9.942 199.200 C 10.072 199.200,13.064 197.782,16.589 196.048 C 20.115 194.314,24.080 192.392,25.400 191.775 C 26.720 191.159,28.278 190.328,28.862 189.928 C 29.446 189.527,30.211 189.200,30.562 189.200 C 30.913 189.200,31.200 189.020,31.200 188.800 C 31.200 188.580,31.560 188.400,32.000 188.400 C 32.440 188.400,32.800 188.220,32.800 188.000 C 32.800 187.780,33.160 187.600,33.600 187.600 C 34.040 187.600,34.401 187.465,34.403 187.300 C 34.407 186.949,36.337 186.000,37.046 186.000 C 37.314 186.000,37.593 185.855,37.667 185.679 C 37.788 185.386,56.436 176.058,59.500 174.757 C 60.215 174.453,60.800 174.069,60.800 173.902 C 60.800 173.736,61.160 173.600,61.600 173.600 C 62.040 173.600,62.400 173.420,62.400 173.200 C 62.400 172.980,62.760 172.800,63.200 172.800 C 63.640 172.800,64.000 172.620,64.000 172.400 C 64.000 172.180,64.345 172.000,64.767 172.000 C 65.188 172.000,65.593 171.865,65.667 171.700 C 65.740 171.535,66.610 171.014,67.600 170.543 C 74.183 167.410,78.153 165.327,79.819 164.134 C 82.356 162.317,85.200 162.671,85.200 164.805 C 85.200 165.216,85.380 165.664,85.600 165.800 C 85.830 165.942,86.000 168.063,86.000 170.800 C 86.000 173.537,86.170 175.658,86.400 175.800 C 86.632 175.943,86.800 178.137,86.800 181.024 C 86.800 184.075,86.955 186.000,87.200 186.000 C 87.445 186.000,87.600 187.925,87.600 190.976 C 87.600 193.863,87.768 196.057,88.000 196.200 C 88.232 196.343,88.400 198.537,88.400 201.424 C 88.400 204.161,88.563 206.400,88.762 206.400 C 89.112 206.400,89.553 213.415,89.743 222.005 C 89.794 224.318,90.007 226.478,90.218 226.805 C 90.428 227.132,90.731 229.560,90.891 232.200 C 91.050 234.840,91.327 239.430,91.504 242.400 C 91.919 249.321,92.127 249.723,94.198 247.602 C 95.058 246.721,95.956 246.000,96.193 246.000 C 96.429 246.000,97.783 244.830,99.200 243.400 C 100.617 241.970,101.966 240.800,102.198 240.800 C 102.429 240.800,104.050 239.360,105.800 237.600 C 107.550 235.840,109.170 234.400,109.400 234.400 C 109.630 234.400,111.250 232.960,113.000 231.200 C 114.750 229.440,116.410 228.000,116.691 228.000 C 117.080 228.000,117.200 226.597,117.200 222.024 C 117.200 218.471,117.362 215.947,117.600 215.800 C 117.841 215.651,118.000 212.870,118.000 208.800 C 118.000 204.730,118.159 201.949,118.400 201.800 C 118.642 201.651,118.800 198.804,118.800 194.600 C 118.800 190.396,118.958 187.549,119.200 187.400 C 119.443 187.250,119.600 184.337,119.600 180.000 C 119.600 175.663,119.757 172.750,120.000 172.600 C 120.220 172.464,120.400 171.924,120.400 171.400 C 120.400 170.876,120.580 170.336,120.800 170.200 C 121.055 170.043,121.200 164.663,121.200 155.376 L 121.200 140.800 122.848 140.800 C 124.043 140.800,125.444 140.292,127.948 138.951 C 129.847 137.934,133.650 135.930,136.400 134.499 C 139.150 133.067,141.580 131.761,141.800 131.596 C 142.020 131.431,145.080 129.795,148.600 127.959 C 155.556 124.331,157.939 123.070,164.853 119.359 C 167.354 118.017,171.920 115.600,175.000 113.987 C 178.080 112.375,181.680 110.462,183.000 109.735 C 184.320 109.008,187.920 107.133,191.000 105.569 C 194.080 104.005,196.870 102.497,197.200 102.218 C 197.530 101.938,200.230 100.499,203.200 99.018 C 206.170 97.537,208.870 96.094,209.200 95.810 C 209.530 95.527,212.680 93.818,216.200 92.014 C 219.720 90.209,223.860 88.030,225.400 87.172 C 226.940 86.314,228.470 85.503,228.800 85.371 C 229.130 85.238,230.030 84.800,230.800 84.397 C 231.570 83.994,233.010 83.244,234.000 82.732 C 234.990 82.219,235.890 81.708,236.000 81.595 C 236.565 81.015,240.042 79.509,240.277 79.743 C 240.426 79.893,239.885 80.694,239.074 81.524 C 238.263 82.354,237.600 83.215,237.600 83.436 C 237.600 83.657,236.880 84.541,236.000 85.400 C 235.120 86.259,234.400 87.159,234.400 87.400 C 234.400 87.641,233.680 88.541,232.800 89.400 C 231.920 90.259,231.200 91.159,231.200 91.400 C 231.200 91.641,230.480 92.541,229.600 93.400 C 228.720 94.259,228.000 95.131,228.000 95.336 C 228.000 95.542,227.325 96.489,226.500 97.441 C 223.747 100.617,222.605 102.052,221.972 103.130 C 221.626 103.719,220.851 104.440,220.249 104.732 C 219.648 105.025,219.004 105.663,218.819 106.149 C 218.635 106.635,218.195 107.273,217.842 107.565 C 217.489 107.858,217.200 108.334,217.200 108.622 C 217.200 108.910,216.873 109.250,216.473 109.377 C 216.073 109.504,215.501 110.233,215.201 110.998 C 214.900 111.763,214.148 112.875,213.527 113.470 C 212.907 114.064,212.400 114.749,212.400 114.994 C 212.400 115.238,211.680 116.141,210.800 117.000 C 209.920 117.859,209.200 118.761,209.200 119.003 C 209.200 119.245,208.570 120.054,207.800 120.800 C 207.030 121.546,206.400 122.355,206.400 122.597 C 206.400 122.839,205.680 123.741,204.800 124.600 C 203.920 125.459,203.200 126.359,203.200 126.600 C 203.200 126.841,202.480 127.741,201.600 128.600 C 200.720 129.459,200.000 130.305,200.000 130.480 C 200.000 130.655,199.280 131.563,198.400 132.497 C 197.520 133.431,196.800 134.385,196.800 134.617 C 196.800 134.848,196.080 135.741,195.200 136.600 C 194.320 137.459,193.594 138.351,193.587 138.581 C 193.580 138.812,192.950 139.621,192.187 140.381 C 191.424 141.140,190.797 141.950,190.793 142.181 C 190.790 142.411,190.070 143.307,189.193 144.170 C 188.317 145.034,187.600 145.903,187.600 146.102 C 187.600 146.300,186.880 147.154,186.000 148.000 C 185.120 148.846,184.400 149.743,184.400 149.995 C 184.400 150.246,183.500 151.329,182.400 152.400 C 181.300 153.471,180.400 154.511,180.400 154.710 C 180.400 154.910,179.680 155.807,178.800 156.705 C 177.920 157.603,177.200 158.464,177.200 158.620 C 177.200 158.916,175.763 160.697,172.900 163.951 C 171.965 165.014,171.200 166.053,171.200 166.260 C 171.200 166.468,170.480 167.341,169.600 168.200 C 168.720 169.059,168.000 169.959,168.000 170.200 C 168.000 170.441,167.280 171.341,166.400 172.200 C 165.520 173.059,164.800 173.959,164.800 174.200 C 164.800 174.441,164.080 175.341,163.200 176.200 C 162.320 177.059,161.600 177.931,161.600 178.136 C 161.600 178.342,160.884 179.341,160.009 180.355 C 156.079 184.911,155.600 185.509,155.600 185.863 C 155.600 186.069,154.880 186.941,154.000 187.800 C 153.120 188.659,152.400 189.559,152.400 189.800 C 152.400 190.041,151.680 190.941,150.800 191.800 C 149.920 192.659,149.200 193.559,149.200 193.800 C 149.200 194.041,148.480 194.941,147.600 195.800 C 146.720 196.659,146.000 197.559,146.000 197.800 C 146.000 198.041,145.280 198.941,144.400 199.800 C 143.520 200.659,142.800 201.531,142.800 201.736 C 142.800 201.942,142.084 202.941,141.209 203.955 C 137.279 208.511,136.800 209.109,136.800 209.463 C 136.800 209.669,136.080 210.541,135.200 211.400 C 134.320 212.259,133.600 213.159,133.600 213.399 C 133.600 213.639,132.880 214.517,132.000 215.351 C 131.120 216.185,130.397 217.077,130.393 217.334 C 130.390 217.590,129.670 218.507,128.793 219.370 C 127.917 220.234,127.200 221.108,127.200 221.312 C 127.200 221.516,126.390 222.583,125.400 223.684 C 124.410 224.786,123.600 225.938,123.600 226.246 C 123.600 226.870,118.699 232.000,118.103 232.000 C 117.491 232.000,116.371 233.434,116.699 233.797 C 116.865 233.979,116.795 234.011,116.545 233.869 C 116.009 233.562,115.029 234.600,115.356 235.129 C 115.480 235.329,115.225 235.815,114.791 236.209 C 114.356 236.602,114.000 237.173,114.000 237.478 C 114.000 237.783,113.280 238.717,112.400 239.554 C 111.520 240.391,110.800 241.249,110.800 241.460 C 110.800 241.671,110.170 242.454,109.400 243.200 C 108.630 243.946,108.000 244.760,108.000 245.008 C 108.000 245.256,107.283 246.166,106.407 247.030 C 105.530 247.893,104.810 248.788,104.807 249.019 C 104.803 249.249,104.080 250.141,103.200 251.000 C 102.320 251.859,101.600 252.759,101.600 253.000 C 101.600 253.241,100.880 254.141,100.000 255.000 C 99.120 255.859,98.400 256.759,98.400 257.000 C 98.400 257.241,97.680 258.141,96.800 259.000 C 95.920 259.859,95.200 260.759,95.200 261.000 C 95.200 261.241,94.480 262.141,93.600 263.000 C 92.720 263.859,92.000 264.761,92.000 265.003 C 92.000 265.245,91.370 266.054,90.600 266.800 C 89.830 267.546,89.200 268.355,89.200 268.597 C 89.200 268.839,88.480 269.741,87.600 270.600 C 86.720 271.459,86.000 272.359,86.000 272.600 C 86.000 272.841,85.280 273.741,84.400 274.600 C 83.520 275.459,82.800 276.359,82.800 276.600 C 82.800 276.841,82.080 277.741,81.200 278.600 C 80.320 279.459,79.600 280.359,79.600 280.600 C 79.600 280.841,78.880 281.741,78.000 282.600 C 77.120 283.459,76.400 284.361,76.400 284.603 C 76.400 284.845,75.770 285.654,75.000 286.400 C 74.230 287.146,73.600 287.955,73.600 288.197 C 73.600 288.439,72.880 289.341,72.000 290.200 C 71.120 291.059,70.400 291.959,70.400 292.200 C 70.400 292.441,69.680 293.341,68.800 294.200 C 67.920 295.059,67.200 295.959,67.200 296.199 C 67.200 296.439,66.480 297.317,65.600 298.151 C 64.720 298.985,64.000 299.840,64.000 300.052 C 64.000 300.263,63.580 300.857,63.066 301.371 C 62.552 301.884,61.428 303.181,60.568 304.252 C 59.708 305.324,58.240 307.010,57.307 308.000 C 56.373 308.990,55.607 310.010,55.605 310.267 C 55.602 310.523,55.465 310.793,55.300 310.867 C 53.846 311.513,49.946 317.200,50.957 317.200 C 51.264 317.200,51.612 317.455,51.732 317.768 C 51.852 318.080,53.124 318.896,54.559 319.581 C 55.995 320.266,57.274 320.995,57.401 321.202 C 57.529 321.409,58.301 321.884,59.117 322.256 C 59.933 322.629,60.909 323.197,61.287 323.518 C 61.665 323.838,63.038 324.663,64.339 325.350 C 65.639 326.038,68.008 327.320,69.602 328.200 C 71.197 329.080,73.202 330.180,74.058 330.645 C 74.914 331.109,75.926 331.748,76.307 332.065 C 76.688 332.382,77.900 333.082,79.000 333.620 C 80.100 334.159,81.349 334.914,81.775 335.299 C 82.202 335.685,82.787 336.000,83.075 336.000 C 83.364 336.000,83.600 336.180,83.600 336.400 C 83.600 336.620,83.960 336.800,84.400 336.800 C 84.840 336.800,85.200 336.980,85.200 337.200 C 85.200 337.420,85.558 337.600,85.997 337.600 C 86.435 337.600,87.018 337.960,87.293 338.400 C 87.568 338.840,88.068 339.200,88.405 339.200 C 88.742 339.200,89.644 339.705,90.409 340.322 C 93.224 342.593,97.600 344.260,97.600 343.062 C 97.600 342.766,97.960 342.198,98.400 341.800 C 98.840 341.402,99.200 340.834,99.200 340.538 C 99.200 340.242,99.350 340.000,99.532 340.000 C 99.715 340.000,100.120 339.505,100.432 338.900 C 100.745 338.295,101.494 337.260,102.098 336.600 C 102.702 335.940,103.197 335.175,103.198 334.900 C 103.199 334.625,103.350 334.400,103.532 334.400 C 103.715 334.400,104.119 333.905,104.430 333.300 C 104.740 332.695,105.311 331.909,105.697 331.553 C 106.084 331.197,106.400 330.656,106.400 330.349 C 106.400 330.043,106.760 329.568,107.200 329.293 C 107.640 329.018,108.000 328.510,108.000 328.164 C 108.000 327.818,108.630 326.766,109.400 325.826 C 110.170 324.886,110.800 323.939,110.800 323.721 C 110.800 323.503,111.160 322.998,111.600 322.600 C 112.040 322.202,112.400 321.662,112.400 321.400 C 112.400 321.138,112.760 320.598,113.200 320.200 C 113.640 319.802,114.000 319.262,114.000 319.000 C 114.000 318.738,114.360 318.198,114.800 317.800 C 115.240 317.402,115.600 316.862,115.600 316.600 C 115.600 316.338,115.960 315.798,116.400 315.400 C 116.840 315.002,117.200 314.462,117.200 314.200 C 117.200 313.938,117.560 313.398,118.000 313.000 C 118.440 312.602,118.800 312.062,118.800 311.800 C 118.800 311.538,119.160 310.998,119.600 310.600 C 120.040 310.202,120.400 309.668,120.400 309.413 C 120.400 309.158,120.940 308.432,121.600 307.800 C 122.260 307.168,122.800 306.442,122.800 306.187 C 122.800 305.932,123.160 305.398,123.600 305.000 C 124.040 304.602,124.400 304.062,124.400 303.800 C 124.400 303.538,124.760 302.998,125.200 302.600 C 125.640 302.202,126.000 301.722,126.000 301.534 C 126.000 301.346,126.630 300.295,127.400 299.200 C 128.170 298.105,128.800 297.054,128.800 296.866 C 128.800 296.678,129.160 296.198,129.600 295.800 C 130.040 295.402,130.400 294.862,130.400 294.600 C 130.400 294.338,130.760 293.798,131.200 293.400 C 131.640 293.002,132.000 292.434,132.000 292.138 C 132.000 291.842,132.159 291.600,132.354 291.600 C 132.549 291.600,132.996 290.995,133.347 290.255 C 133.698 289.515,134.259 288.683,134.593 288.406 C 134.927 288.129,135.200 287.654,135.200 287.351 C 135.200 287.048,135.350 286.800,135.532 286.800 C 135.715 286.800,136.120 286.305,136.432 285.700 C 136.745 285.095,137.315 284.251,137.700 283.825 C 138.085 283.398,138.400 282.813,138.400 282.525 C 138.400 282.236,138.538 282.000,138.706 282.000 C 138.874 282.000,139.456 281.280,140.000 280.400 C 140.544 279.520,141.126 278.800,141.294 278.800 C 141.462 278.800,141.600 278.446,141.600 278.014 C 141.600 277.582,141.953 277.039,142.384 276.809 C 142.815 276.578,143.465 275.762,143.829 274.995 C 144.193 274.228,144.651 273.600,144.846 273.600 C 145.041 273.600,145.200 273.358,145.200 273.062 C 145.200 272.766,145.560 272.198,146.000 271.800 C 146.440 271.402,146.800 270.862,146.800 270.600 C 146.800 270.338,147.160 269.798,147.600 269.400 C 148.040 269.002,148.400 268.462,148.400 268.200 C 148.400 267.938,148.760 267.398,149.200 267.000 C 149.640 266.602,150.000 266.062,150.000 265.800 C 150.000 265.538,150.360 264.998,150.800 264.600 C 151.240 264.202,151.600 263.662,151.600 263.400 C 151.600 263.138,151.960 262.598,152.400 262.200 C 152.840 261.802,153.200 261.262,153.200 261.000 C 153.200 260.738,153.560 260.198,154.000 259.800 C 154.440 259.402,154.800 258.862,154.800 258.600 C 154.800 258.338,155.160 257.798,155.600 257.400 C 156.040 257.002,156.400 256.462,156.400 256.200 C 156.400 255.938,156.760 255.398,157.200 255.000 C 157.640 254.602,158.000 254.056,158.000 253.787 C 158.000 253.518,158.289 253.058,158.642 252.765 C 158.995 252.473,159.452 251.865,159.659 251.416 C 160.390 249.826,161.112 248.736,162.150 247.653 C 162.727 247.050,163.200 246.369,163.200 246.140 C 163.200 245.911,163.560 245.398,164.000 245.000 C 164.440 244.602,164.800 244.062,164.800 243.800 C 164.800 243.538,165.160 242.998,165.600 242.600 C 166.040 242.202,166.400 241.662,166.400 241.400 C 166.400 241.138,166.760 240.598,167.200 240.200 C 167.640 239.802,168.000 239.262,168.000 239.000 C 168.000 238.738,168.360 238.198,168.800 237.800 C 169.240 237.402,169.600 236.834,169.600 236.538 C 169.600 236.242,169.750 236.000,169.932 236.000 C 170.115 236.000,170.512 235.505,170.815 234.900 C 171.118 234.295,171.627 233.484,171.947 233.097 C 172.267 232.711,172.725 232.058,172.964 231.646 C 173.623 230.514,178.120 223.829,178.377 223.600 C 178.500 223.490,178.856 222.905,179.168 222.300 C 179.480 221.695,179.885 221.200,180.068 221.200 C 180.250 221.200,180.400 220.949,180.400 220.642 C 180.400 220.335,180.855 219.660,181.410 219.142 C 181.966 218.624,182.706 217.615,183.056 216.900 C 183.405 216.185,183.851 215.600,184.046 215.600 C 184.241 215.600,184.400 215.358,184.400 215.062 C 184.400 214.766,184.760 214.198,185.200 213.800 C 185.640 213.402,186.000 212.862,186.000 212.600 C 186.000 212.338,186.360 211.798,186.800 211.400 C 187.240 211.002,187.600 210.462,187.600 210.200 C 187.600 209.938,187.960 209.398,188.400 209.000 C 188.840 208.602,189.200 208.062,189.200 207.800 C 189.200 207.538,189.560 206.998,190.000 206.600 C 190.440 206.202,190.800 205.656,190.800 205.387 C 190.800 205.118,191.089 204.658,191.442 204.365 C 191.795 204.073,192.252 203.465,192.459 203.016 C 193.087 201.652,193.836 200.444,194.536 199.671 C 194.901 199.267,195.200 198.754,195.200 198.530 C 195.200 198.307,195.560 197.798,196.000 197.400 C 196.440 197.002,196.800 196.462,196.800 196.200 C 196.800 195.938,197.160 195.398,197.600 195.000 C 198.040 194.602,198.400 194.062,198.400 193.800 C 198.400 193.538,198.760 192.998,199.200 192.600 C 199.640 192.202,200.000 191.662,200.000 191.400 C 200.000 191.138,200.360 190.598,200.800 190.200 C 201.240 189.802,201.600 189.268,201.600 189.013 C 201.600 188.758,202.140 188.032,202.800 187.400 C 203.460 186.768,204.000 186.042,204.000 185.787 C 204.000 185.532,204.360 184.998,204.800 184.600 C 205.240 184.202,205.600 183.634,205.600 183.338 C 205.600 183.042,205.750 182.800,205.932 182.800 C 206.115 182.800,206.512 182.305,206.815 181.700 C 207.118 181.095,207.627 180.284,207.947 179.897 C 208.267 179.511,208.725 178.858,208.964 178.448 C 210.130 176.449,212.543 172.985,212.852 172.867 C 213.043 172.793,213.200 172.454,213.200 172.114 C 213.200 171.773,213.516 171.203,213.903 170.847 C 214.289 170.491,214.860 169.705,215.170 169.100 C 215.481 168.495,215.885 168.000,216.068 168.000 C 216.250 168.000,216.400 167.764,216.400 167.475 C 216.400 167.187,216.715 166.602,217.100 166.175 C 217.485 165.749,218.055 164.905,218.368 164.300 C 218.680 163.695,219.085 163.200,219.268 163.200 C 219.450 163.200,219.600 162.958,219.600 162.662 C 219.600 162.366,219.960 161.798,220.400 161.400 C 220.840 161.002,221.200 160.468,221.200 160.213 C 221.200 159.958,221.740 159.232,222.400 158.600 C 223.060 157.968,223.600 157.311,223.600 157.141 C 223.600 156.970,224.590 155.377,225.800 153.600 C 227.010 151.823,228.000 150.224,228.000 150.047 C 228.000 149.869,228.360 149.398,228.800 149.000 C 229.240 148.602,229.600 148.062,229.600 147.800 C 229.600 147.538,229.960 146.998,230.400 146.600 C 230.840 146.202,231.200 145.662,231.200 145.400 C 231.200 145.138,231.560 144.598,232.000 144.200 C 232.440 143.802,232.800 143.262,232.800 143.000 C 232.800 142.738,233.160 142.198,233.600 141.800 C 234.040 141.402,234.400 140.862,234.400 140.600 C 234.400 140.338,234.760 139.798,235.200 139.400 C 235.640 139.002,236.000 138.474,236.000 138.226 C 236.000 137.979,236.360 137.517,236.800 137.200 C 237.240 136.883,237.600 136.331,237.600 135.974 C 237.600 135.616,237.960 134.998,238.400 134.600 C 238.840 134.202,239.200 133.662,239.200 133.400 C 239.200 133.138,239.560 132.598,240.000 132.200 C 240.440 131.802,240.800 131.322,240.800 131.134 C 240.800 130.946,241.970 129.259,243.400 127.385 C 244.830 125.511,246.000 123.752,246.000 123.477 C 246.000 123.202,246.360 122.717,246.800 122.400 C 247.240 122.083,247.600 121.627,247.600 121.387 C 247.600 121.147,247.915 120.602,248.300 120.175 C 248.685 119.749,249.255 118.905,249.568 118.300 C 249.880 117.695,250.285 117.200,250.468 117.200 C 250.650 117.200,250.800 117.007,250.800 116.772 C 250.800 116.265,253.209 112.659,253.677 112.467 C 253.855 112.393,254.000 112.106,254.000 111.829 C 254.000 111.551,254.360 110.998,254.800 110.600 C 255.240 110.202,255.600 109.662,255.600 109.400 C 255.600 109.138,255.960 108.598,256.400 108.200 C 256.840 107.802,257.200 107.341,257.200 107.177 C 257.200 106.724,262.698 98.583,263.393 98.006 C 263.727 97.729,264.000 97.282,264.000 97.013 C 264.000 96.744,264.360 96.198,264.800 95.800 C 265.240 95.402,265.600 94.862,265.600 94.600 C 265.600 94.338,265.960 93.798,266.400 93.400 C 266.840 93.002,267.200 92.462,267.200 92.200 C 267.200 91.938,267.560 91.398,268.000 91.000 C 268.440 90.602,268.800 90.062,268.800 89.800 C 268.800 89.538,269.160 88.998,269.600 88.600 C 270.040 88.202,270.400 87.662,270.400 87.400 C 270.400 87.138,270.760 86.598,271.200 86.200 C 271.640 85.802,272.000 85.262,272.000 85.000 C 272.000 84.738,272.360 84.198,272.800 83.800 C 273.240 83.402,273.600 82.862,273.600 82.600 C 273.600 82.338,273.960 81.798,274.400 81.400 C 274.840 81.002,275.200 80.462,275.200 80.200 C 275.200 79.938,275.560 79.398,276.000 79.000 C 276.440 78.602,276.800 78.097,276.800 77.879 C 276.800 77.661,277.430 76.714,278.200 75.774 C 278.970 74.834,279.600 73.820,279.600 73.521 C 279.600 73.222,279.960 72.717,280.400 72.400 C 280.840 72.083,281.200 71.620,281.200 71.371 C 281.200 71.122,281.740 70.354,282.400 69.663 C 283.060 68.972,283.600 68.175,283.600 67.892 C 283.600 67.609,283.960 67.117,284.400 66.800 C 284.840 66.483,285.200 66.027,285.200 65.787 C 285.200 65.547,285.515 65.002,285.900 64.575 C 286.285 64.149,286.855 63.305,287.168 62.700 C 287.480 62.095,287.885 61.600,288.068 61.600 C 288.250 61.600,288.400 61.429,288.400 61.220 C 288.400 61.011,288.985 60.005,289.700 58.985 C 290.415 57.964,291.187 56.805,291.416 56.407 C 291.644 56.010,292.087 55.377,292.400 55.000 C 293.040 54.229,293.782 52.999,294.341 51.784 C 294.548 51.335,295.005 50.727,295.358 50.435 C 295.711 50.142,296.000 49.709,296.000 49.473 C 296.000 48.578,298.158 46.800,299.244 46.800 C 299.845 46.800,301.747 46.092,303.469 45.226 C 305.191 44.360,307.500 43.264,308.600 42.790 C 309.700 42.317,311.862 41.315,313.404 40.565 C 314.945 39.814,316.430 39.200,316.704 39.200 C 316.977 39.200,317.200 39.020,317.200 38.800 C 317.200 38.580,317.560 38.400,318.000 38.400 C 318.440 38.400,318.800 38.220,318.800 38.000 C 318.800 37.780,319.688 37.600,320.773 37.600 C 322.472 37.600,322.784 37.475,323.017 36.700 C 323.622 34.693,325.558 33.315,329.643 31.986 L 333.600 30.699 333.600 28.774 L 333.600 26.849 331.700 26.573 C 330.655 26.422,329.495 26.140,329.122 25.947 C 328.749 25.754,325.779 25.581,322.522 25.563 C 319.076 25.544,316.391 25.357,316.100 25.116 C 315.565 24.673,315.399 21.356,315.900 21.133 C 316.065 21.060,316.633 20.145,317.163 19.100 C 317.692 18.055,318.277 17.200,318.463 17.200 C 318.648 17.200,318.800 16.840,318.800 16.400 C 318.800 15.960,318.936 15.600,319.102 15.600 C 319.570 15.600,320.491 13.270,320.206 12.809 C 319.880 12.282,316.125 12.274,315.800 12.800 " stroke="none" fill="#07a2e6" fill-rule="evenodd"/><path id="path1" d="M329.400 32.043 C 324.663 33.635,321.638 36.598,323.178 38.138 C 323.715 38.675,323.735 45.470,323.200 45.800 C 322.980 45.936,322.800 47.196,322.800 48.600 C 322.800 50.004,322.620 51.264,322.400 51.400 C 322.175 51.539,322.000 53.471,322.000 55.824 C 322.000 59.005,321.875 60.000,321.475 60.000 C 320.812 60.000,319.217 61.773,318.236 63.600 C 317.823 64.370,317.177 65.360,316.802 65.800 C 316.426 66.240,316.006 66.870,315.869 67.200 C 315.731 67.530,315.067 68.700,314.393 69.800 C 313.719 70.900,312.727 72.745,312.189 73.900 C 311.651 75.055,311.028 76.000,310.805 76.000 C 310.582 76.000,310.400 76.270,310.400 76.600 C 310.400 76.930,310.265 77.200,310.100 77.201 C 309.935 77.201,309.267 78.056,308.615 79.101 C 307.963 80.145,307.108 81.235,306.715 81.523 C 306.322 81.810,306.000 82.305,306.000 82.623 C 306.000 82.940,305.845 83.200,305.655 83.200 C 305.355 83.200,301.200 89.377,301.200 89.824 C 301.200 89.989,300.202 91.258,299.375 92.145 C 299.142 92.395,298.699 93.172,298.391 93.871 C 298.082 94.570,297.688 95.055,297.515 94.948 C 297.342 94.840,297.200 94.960,297.200 95.214 C 297.200 95.468,296.390 96.883,295.400 98.358 C 294.410 99.834,293.600 101.257,293.600 101.521 C 293.600 101.784,293.450 102.000,293.268 102.000 C 293.085 102.000,292.680 102.495,292.368 103.100 C 292.055 103.705,291.485 104.549,291.100 104.975 C 290.715 105.402,290.400 105.987,290.400 106.275 C 290.400 106.564,290.250 106.800,290.068 106.800 C 289.885 106.800,289.480 107.295,289.168 107.900 C 288.855 108.505,288.285 109.349,287.900 109.775 C 287.515 110.202,287.200 110.787,287.200 111.075 C 287.200 111.364,287.050 111.600,286.868 111.600 C 286.685 111.600,286.280 112.095,285.968 112.700 C 285.655 113.305,285.085 114.149,284.700 114.575 C 284.315 115.002,284.000 115.559,284.000 115.813 C 284.000 116.068,283.640 116.602,283.200 117.000 C 282.760 117.398,282.400 117.944,282.400 118.213 C 282.400 118.482,282.111 118.942,281.758 119.235 C 281.405 119.527,280.953 120.135,280.752 120.584 C 280.201 121.820,274.729 129.832,273.519 131.176 C 273.233 131.493,272.910 131.947,272.800 132.185 C 272.690 132.423,270.980 135.020,269.000 137.955 C 267.020 140.891,265.220 143.568,265.000 143.905 C 264.780 144.241,261.135 149.729,256.900 156.099 C 252.665 162.469,249.200 167.815,249.200 167.978 C 249.200 168.142,248.840 168.602,248.400 169.000 C 247.960 169.398,247.600 169.972,247.600 170.275 C 247.600 170.577,247.337 170.926,247.015 171.050 C 246.694 171.173,246.331 171.588,246.209 171.973 C 246.087 172.357,245.509 172.926,244.925 173.236 C 243.365 174.064,241.600 175.699,241.600 176.315 C 241.600 176.610,241.060 177.306,240.400 177.861 C 239.740 178.417,239.200 179.215,239.200 179.636 C 239.200 180.056,239.020 180.400,238.800 180.400 C 238.580 180.400,238.396 181.165,238.391 182.100 C 238.386 183.168,238.092 184.171,237.600 184.800 C 237.170 185.350,236.814 185.926,236.809 186.080 C 236.804 186.234,236.215 187.197,235.500 188.221 C 234.785 189.244,234.020 190.361,233.800 190.702 C 233.456 191.235,226.097 202.273,221.068 209.800 C 220.186 211.120,219.360 212.290,219.232 212.400 C 219.104 212.510,218.744 213.095,218.432 213.700 C 218.120 214.305,217.715 214.800,217.532 214.800 C 217.350 214.800,217.200 215.043,217.200 215.341 C 217.200 215.638,216.660 216.446,216.000 217.137 C 215.340 217.828,214.800 218.664,214.800 218.996 C 214.800 219.328,214.620 219.600,214.400 219.600 C 214.180 219.600,214.000 219.836,214.000 220.125 C 214.000 220.413,213.685 220.998,213.300 221.425 C 212.915 221.851,212.345 222.695,212.032 223.300 C 211.720 223.905,211.315 224.400,211.132 224.400 C 210.950 224.400,210.800 224.657,210.800 224.971 C 210.800 225.286,210.567 225.781,210.281 226.071 C 209.468 226.900,184.400 264.722,184.400 265.121 C 184.400 265.316,184.040 265.802,183.600 266.200 C 183.160 266.598,182.800 267.165,182.800 267.459 C 182.800 267.753,182.440 268.218,182.000 268.493 C 181.560 268.768,181.200 269.281,181.200 269.634 C 181.200 269.987,180.840 270.602,180.400 271.000 C 179.960 271.398,179.600 271.956,179.600 272.239 C 179.600 272.523,179.273 272.990,178.874 273.277 C 178.474 273.565,178.022 274.070,177.869 274.400 C 177.564 275.058,176.827 276.203,175.000 278.857 C 174.340 279.816,173.545 281.095,173.232 281.700 C 172.920 282.305,172.515 282.800,172.332 282.800 C 172.150 282.800,172.000 283.042,172.000 283.338 C 172.000 283.634,171.640 284.202,171.200 284.600 C 170.760 284.998,170.400 285.538,170.400 285.800 C 170.400 286.062,170.040 286.602,169.600 287.000 C 169.160 287.398,168.800 287.938,168.800 288.200 C 168.800 288.462,168.440 289.002,168.000 289.400 C 167.560 289.798,167.200 290.338,167.200 290.600 C 167.200 290.862,166.840 291.402,166.400 291.800 C 165.960 292.198,165.600 292.738,165.600 293.000 C 165.600 293.262,165.240 293.802,164.800 294.200 C 164.360 294.598,164.000 295.138,164.000 295.400 C 164.000 295.662,163.640 296.202,163.200 296.600 C 162.760 296.998,162.400 297.538,162.400 297.800 C 162.400 298.062,162.040 298.602,161.600 299.000 C 161.160 299.398,160.800 299.944,160.800 300.213 C 160.800 300.482,160.511 300.942,160.158 301.235 C 159.805 301.527,159.348 302.135,159.141 302.584 C 158.513 303.948,157.764 305.156,157.064 305.929 C 156.699 306.333,156.400 306.846,156.400 307.070 C 156.400 307.293,156.040 307.802,155.600 308.200 C 155.160 308.598,154.800 309.138,154.800 309.400 C 154.800 309.662,154.440 310.202,154.000 310.600 C 153.560 310.998,153.200 311.566,153.200 311.862 C 153.200 312.158,153.050 312.400,152.868 312.400 C 152.685 312.400,152.280 312.895,151.968 313.500 C 151.655 314.105,151.085 314.949,150.700 315.375 C 150.315 315.802,150.000 316.359,150.000 316.613 C 150.000 316.868,149.640 317.402,149.200 317.800 C 148.760 318.198,148.400 318.738,148.400 319.000 C 148.400 319.262,148.040 319.802,147.600 320.200 C 147.160 320.598,146.800 321.166,146.800 321.462 C 146.800 321.758,146.641 322.000,146.446 322.000 C 146.251 322.000,145.792 322.630,145.427 323.400 C 145.061 324.170,144.582 324.800,144.360 324.800 C 144.139 324.800,143.770 325.340,143.540 326.000 C 143.310 326.660,142.959 327.200,142.761 327.200 C 142.562 327.200,142.400 327.436,142.400 327.725 C 142.400 328.013,142.040 328.636,141.600 329.108 C 141.160 329.580,140.800 330.126,140.800 330.321 C 140.800 330.516,140.440 331.002,140.000 331.400 C 139.560 331.798,139.200 332.338,139.200 332.600 C 139.200 332.862,138.840 333.402,138.400 333.800 C 137.960 334.198,137.600 334.738,137.600 335.000 C 137.600 335.262,137.240 335.802,136.800 336.200 C 136.360 336.598,136.000 337.138,136.000 337.400 C 136.000 337.662,135.640 338.202,135.200 338.600 C 134.760 338.998,134.400 339.538,134.400 339.800 C 134.400 340.062,134.040 340.602,133.600 341.000 C 133.160 341.398,132.800 341.938,132.800 342.200 C 132.800 342.462,132.440 343.002,132.000 343.400 C 131.560 343.798,131.200 344.338,131.200 344.600 C 131.200 344.862,130.840 345.402,130.400 345.800 C 129.960 346.198,129.600 346.738,129.600 347.000 C 129.600 347.262,129.240 347.802,128.800 348.200 C 128.360 348.598,128.000 349.144,128.000 349.413 C 128.000 349.682,127.711 350.142,127.358 350.435 C 127.005 350.727,126.548 351.335,126.341 351.784 C 125.702 353.173,124.959 354.361,124.216 355.182 C 122.905 356.631,123.726 357.299,128.611 358.759 C 130.157 359.222,131.722 359.600,132.088 359.600 C 132.453 359.600,132.851 359.759,132.971 359.954 C 133.092 360.148,134.047 360.435,135.095 360.591 C 136.143 360.747,137.180 361.004,137.400 361.162 C 137.620 361.320,138.790 361.676,140.000 361.953 C 142.103 362.434,143.376 362.874,144.895 363.647 C 145.277 363.841,145.941 364.000,146.371 364.000 C 146.801 364.000,147.264 364.180,147.400 364.400 C 147.536 364.620,148.256 364.800,149.000 364.800 C 149.744 364.800,150.464 364.980,150.600 365.200 C 150.736 365.420,151.276 365.600,151.800 365.600 C 152.324 365.600,152.864 365.780,153.000 366.000 C 153.136 366.220,153.676 366.400,154.200 366.400 C 154.724 366.400,155.264 366.580,155.400 366.800 C 155.536 367.020,156.256 367.200,157.000 367.200 C 157.744 367.200,158.464 367.380,158.600 367.600 C 158.736 367.820,159.276 368.000,159.800 368.000 C 160.324 368.000,160.864 368.180,161.000 368.400 C 161.136 368.620,161.676 368.800,162.200 368.800 C 162.724 368.800,163.264 368.980,163.400 369.200 C 163.536 369.420,164.256 369.600,165.000 369.600 C 165.744 369.600,166.464 369.780,166.600 370.000 C 167.074 370.766,169.258 370.463,169.484 369.600 C 169.599 369.160,169.852 368.800,170.047 368.800 C 170.241 368.800,170.400 368.566,170.400 368.280 C 170.400 367.544,171.341 365.607,171.700 365.603 C 171.865 365.601,172.000 365.240,172.000 364.800 C 172.000 364.360,172.180 364.000,172.400 364.000 C 172.620 364.000,172.800 363.706,172.800 363.347 C 172.800 362.988,173.124 362.403,173.520 362.047 C 173.917 361.691,174.573 360.680,174.979 359.800 C 177.393 354.569,180.079 349.198,180.373 349.016 C 180.561 348.900,181.941 346.329,183.440 343.303 C 184.939 340.276,186.489 337.509,186.883 337.153 C 187.277 336.797,187.600 336.321,187.600 336.094 C 187.600 335.695,188.952 333.022,190.738 329.888 C 191.212 329.056,191.600 328.111,191.600 327.788 C 191.600 327.465,191.780 327.200,192.000 327.200 C 192.220 327.200,192.400 326.924,192.400 326.586 C 192.400 326.032,193.439 324.103,194.008 323.600 C 194.132 323.490,195.461 320.924,196.960 317.897 C 198.459 314.871,199.826 312.307,199.998 312.201 C 200.171 312.095,201.713 309.171,203.426 305.704 C 205.139 302.237,206.789 299.104,207.094 298.742 C 207.907 297.776,210.800 292.014,210.800 291.360 C 210.800 291.052,210.946 290.800,211.125 290.800 C 211.304 290.800,211.701 290.161,212.008 289.381 C 212.314 288.600,212.787 287.776,213.060 287.550 C 213.333 287.324,215.016 284.196,216.800 280.600 C 218.584 277.004,220.304 273.845,220.622 273.582 C 220.940 273.318,221.200 272.885,221.200 272.621 C 221.200 272.356,221.658 271.709,222.218 271.183 C 222.778 270.657,224.315 268.061,225.633 265.413 C 228.855 258.943,230.539 255.827,230.900 255.667 C 231.065 255.593,231.200 255.188,231.200 254.767 C 231.200 254.345,231.380 254.000,231.600 254.000 C 231.820 254.000,232.000 253.640,232.000 253.200 C 232.000 252.760,232.138 252.400,232.306 252.400 C 232.474 252.400,232.913 251.704,233.282 250.853 C 233.650 250.001,234.193 249.056,234.488 248.753 C 234.783 248.449,236.253 245.724,237.755 242.697 C 239.257 239.671,240.640 237.099,240.830 236.982 C 241.289 236.698,243.600 231.832,243.602 231.143 C 243.603 230.844,244.314 229.196,245.182 227.480 C 246.362 225.150,246.791 223.783,246.881 222.080 L 247.000 219.800 248.500 219.676 C 249.675 219.579,250.000 219.384,250.000 218.776 C 250.000 218.349,250.135 217.996,250.300 217.992 C 250.465 217.987,251.410 216.279,252.400 214.197 C 253.390 212.114,254.470 210.318,254.800 210.206 C 255.400 210.001,256.400 208.241,256.400 207.389 C 256.400 207.141,257.282 205.242,258.360 203.169 C 259.439 201.096,261.546 196.970,263.043 194.000 C 264.541 191.030,266.089 188.309,266.483 187.953 C 266.877 187.597,267.200 187.138,267.200 186.933 C 267.200 186.312,268.179 184.406,268.500 184.403 C 268.665 184.401,268.800 184.055,268.800 183.633 C 268.800 183.212,268.942 182.807,269.115 182.733 C 269.288 182.660,269.929 181.568,270.540 180.308 C 271.151 179.047,271.811 177.917,272.006 177.796 C 272.410 177.547,277.200 167.836,277.200 167.268 C 277.200 167.065,277.463 166.680,277.784 166.413 C 278.105 166.147,279.463 163.711,280.800 161.000 C 282.137 158.289,283.495 155.853,283.816 155.587 C 284.137 155.320,284.400 154.854,284.400 154.551 C 284.400 154.248,284.580 154.000,284.800 154.000 C 285.020 154.000,285.200 153.728,285.200 153.395 C 285.200 152.839,285.922 151.278,286.400 150.800 C 286.878 150.322,287.600 148.761,287.600 148.205 C 287.600 147.872,287.780 147.600,288.000 147.600 C 288.220 147.600,288.400 147.407,288.400 147.172 C 288.400 146.937,288.903 145.992,289.517 145.072 C 290.617 143.426,292.358 140.010,293.975 136.324 C 294.428 135.293,294.964 134.346,295.167 134.220 C 295.371 134.095,296.645 131.745,298.000 129.000 C 299.355 126.255,300.611 123.917,300.791 123.806 C 300.971 123.694,302.166 121.487,303.447 118.901 C 304.727 116.316,305.915 114.140,306.087 114.067 C 306.259 113.993,306.400 113.608,306.400 113.209 C 306.400 112.811,306.644 112.392,306.941 112.278 C 307.449 112.083,308.528 110.058,310.945 104.763 C 311.506 103.533,312.243 102.296,312.583 102.014 C 312.922 101.733,313.200 100.922,313.200 100.213 C 313.200 98.940,314.191 97.600,315.131 97.600 C 315.389 97.600,315.600 97.161,315.600 96.624 C 315.600 96.087,315.780 95.536,316.000 95.400 C 316.220 95.264,316.400 94.713,316.400 94.176 C 316.400 93.304,316.570 93.200,318.000 93.200 C 319.609 93.200,320.490 95.403,319.200 96.200 C 318.946 96.357,318.800 101.330,318.800 109.800 C 318.800 118.270,318.654 123.243,318.400 123.400 C 318.149 123.555,318.000 127.663,318.000 134.400 C 318.000 141.137,317.851 145.245,317.600 145.400 C 317.349 145.555,317.200 149.796,317.200 156.800 C 317.200 163.804,317.051 168.045,316.800 168.200 C 316.549 168.355,316.400 172.530,316.400 179.400 C 316.400 186.270,316.251 190.445,316.000 190.600 C 315.749 190.755,315.600 194.996,315.600 202.000 C 315.600 209.004,315.451 213.245,315.200 213.400 C 314.949 213.555,314.800 217.804,314.800 224.824 C 314.800 232.008,314.657 236.000,314.400 236.000 C 314.180 236.000,314.000 236.295,314.000 236.656 C 314.000 238.173,312.901 238.374,304.524 238.387 C 299.557 238.395,296.352 238.246,296.200 238.000 C 296.050 237.757,293.137 237.600,288.800 237.600 C 284.463 237.600,281.550 237.443,281.400 237.200 C 281.250 236.958,278.356 236.800,274.056 236.800 C 269.756 236.800,266.799 236.639,266.551 236.391 C 266.293 236.133,263.279 236.022,258.372 236.091 L 250.602 236.200 248.145 241.120 C 246.793 243.826,245.435 246.346,245.126 246.720 C 244.817 247.094,244.009 248.570,243.332 250.000 C 239.929 257.181,238.197 260.613,237.913 260.733 C 237.741 260.807,237.600 261.212,237.600 261.633 C 237.600 262.055,237.420 262.400,237.200 262.400 C 236.980 262.400,236.800 262.760,236.800 263.200 C 236.800 263.640,236.620 264.000,236.400 264.000 C 236.180 264.000,236.000 264.320,236.000 264.712 C 236.000 265.103,235.640 265.683,235.200 266.000 C 234.760 266.317,234.400 266.882,234.400 267.255 C 234.400 267.628,234.259 267.993,234.087 268.067 C 233.765 268.204,229.200 277.220,229.200 277.720 C 229.200 278.098,234.188 278.079,234.564 277.700 C 234.728 277.535,237.413 277.183,240.531 276.918 C 243.649 276.653,247.550 276.255,249.200 276.033 C 250.850 275.812,253.640 275.436,255.400 275.198 C 257.160 274.960,260.088 274.661,261.908 274.532 C 263.727 274.404,265.312 274.142,265.431 273.949 C 265.550 273.757,266.976 273.600,268.600 273.600 C 270.224 273.600,271.664 273.420,271.800 273.200 C 271.936 272.980,273.376 272.800,275.000 272.800 C 276.624 272.800,278.064 272.620,278.200 272.400 C 278.336 272.180,279.596 272.000,281.000 272.000 C 282.404 272.000,283.664 271.820,283.800 271.600 C 283.936 271.380,284.923 271.200,285.993 271.200 C 287.063 271.200,288.808 271.025,289.869 270.812 C 291.552 270.474,302.619 268.958,305.695 268.645 C 306.297 268.583,307.121 268.233,307.526 267.867 C 308.429 267.049,311.047 266.990,311.826 267.769 C 312.309 268.252,312.411 273.903,312.498 304.869 L 312.600 341.400 331.200 341.400 L 349.800 341.400 349.910 334.630 C 349.979 330.391,349.867 327.707,349.610 327.450 C 349.361 327.201,349.200 324.256,349.200 319.944 C 349.200 315.644,349.042 312.750,348.800 312.600 C 348.558 312.451,348.400 309.604,348.400 305.400 C 348.400 301.196,348.242 298.349,348.000 298.200 C 347.757 298.050,347.600 295.137,347.600 290.800 C 347.600 286.463,347.443 283.550,347.200 283.400 C 346.957 283.250,346.800 280.337,346.800 276.000 C 346.800 271.663,346.643 268.750,346.400 268.600 C 346.158 268.450,346.000 265.556,346.000 261.256 C 346.000 257.353,345.831 253.989,345.625 253.780 C 345.418 253.571,345.149 250.250,345.027 246.400 C 344.904 242.550,344.702 236.250,344.577 232.400 C 344.452 228.550,344.181 225.229,343.975 225.020 C 343.769 224.811,343.588 221.931,343.574 218.620 C 343.560 215.309,343.362 208.910,343.135 204.400 C 342.908 199.890,342.559 192.960,342.360 189.000 C 342.161 185.040,341.898 178.470,341.775 174.400 C 341.653 170.330,341.383 166.829,341.176 166.620 C 340.969 166.411,340.800 163.227,340.800 159.544 C 340.800 155.511,340.641 152.749,340.400 152.600 C 340.157 152.450,340.000 149.537,340.000 145.200 C 340.000 140.863,339.843 137.950,339.600 137.800 C 339.357 137.650,339.200 134.670,339.200 130.200 C 339.200 125.730,339.043 122.750,338.800 122.600 C 338.559 122.451,338.400 119.670,338.400 115.600 C 338.400 111.530,338.241 108.749,338.000 108.600 C 337.757 108.450,337.600 105.537,337.600 101.200 C 337.600 96.863,337.443 93.950,337.200 93.800 C 336.957 93.650,336.800 90.737,336.800 86.400 C 336.800 82.063,336.643 79.150,336.400 79.000 C 336.158 78.850,336.000 75.996,336.000 71.776 C 336.000 67.392,335.851 64.800,335.600 64.800 C 335.348 64.800,335.200 62.067,335.200 57.400 C 335.200 52.733,335.052 50.000,334.800 50.000 C 334.548 50.000,334.400 47.267,334.400 42.600 C 334.400 37.933,334.252 35.200,334.000 35.200 C 333.780 35.200,333.600 34.210,333.600 33.000 C 333.600 31.790,333.465 30.808,333.300 30.817 C 333.135 30.826,331.380 31.378,329.400 32.043 " stroke="none" fill="#e61e26" fill-rule="evenodd"/><path id="path2" d="M0.000 200.000 L 0.000 400.000 200.000 400.000 L 400.000 400.000 400.000 200.000 L 400.000 0.000 200.000 0.000 L 0.000 0.000 0.000 200.000 M320.206 12.809 C 320.491 13.270,319.570 15.600,319.102 15.600 C 318.936 15.600,318.800 15.960,318.800 16.400 C 318.800 16.840,318.648 17.200,318.463 17.200 C 318.277 17.200,317.692 18.055,317.163 19.100 C 316.633 20.145,316.065 21.060,315.900 21.133 C 315.399 21.356,315.565 24.673,316.100 25.116 C 316.391 25.357,319.076 25.544,322.522 25.563 C 325.779 25.581,328.749 25.754,329.122 25.947 C 329.495 26.140,330.655 26.422,331.700 26.573 L 333.600 26.849 333.600 31.025 C 333.600 33.542,333.759 35.200,334.000 35.200 C 334.252 35.200,334.400 37.933,334.400 42.600 C 334.400 47.267,334.548 50.000,334.800 50.000 C 335.052 50.000,335.200 52.733,335.200 57.400 C 335.200 62.067,335.348 64.800,335.600 64.800 C 335.851 64.800,336.000 67.392,336.000 71.776 C 336.000 75.996,336.158 78.850,336.400 79.000 C 336.643 79.150,336.800 82.063,336.800 86.400 C 336.800 90.737,336.957 93.650,337.200 93.800 C 337.443 93.950,337.600 96.863,337.600 101.200 C 337.600 105.537,337.757 108.450,338.000 108.600 C 338.241 108.749,338.400 111.530,338.400 115.600 C 338.400 119.670,338.559 122.451,338.800 122.600 C 339.043 122.750,339.200 125.730,339.200 130.200 C 339.200 134.670,339.357 137.650,339.600 137.800 C 339.843 137.950,340.000 140.863,340.000 145.200 C 340.000 149.537,340.157 152.450,340.400 152.600 C 340.641 152.749,340.800 155.511,340.800 159.544 C 340.800 163.227,340.969 166.411,341.176 166.620 C 341.383 166.829,341.653 170.330,341.775 174.400 C 341.898 178.470,342.161 185.040,342.360 189.000 C 342.559 192.960,342.908 199.890,343.135 204.400 C 343.362 208.910,343.560 215.309,343.574 218.620 C 343.588 221.931,343.769 224.811,343.975 225.020 C 344.181 225.229,344.452 228.550,344.577 232.400 C 344.702 236.250,344.904 242.550,345.027 246.400 C 345.149 250.250,345.418 253.571,345.625 253.780 C 345.831 253.989,346.000 257.353,346.000 261.256 C 346.000 265.556,346.158 268.450,346.400 268.600 C 346.643 268.750,346.800 271.663,346.800 276.000 C 346.800 280.337,346.957 283.250,347.200 283.400 C 347.443 283.550,347.600 286.463,347.600 290.800 C 347.600 295.137,347.757 298.050,348.000 298.200 C 348.242 298.349,348.400 301.196,348.400 305.400 C 348.400 309.604,348.558 312.451,348.800 312.600 C 349.042 312.750,349.200 315.644,349.200 319.944 C 349.200 324.256,349.361 327.201,349.610 327.450 C 349.867 327.707,349.979 330.391,349.910 334.630 L 349.800 341.400 331.200 341.400 L 312.600 341.400 312.498 304.869 C 312.411 273.903,312.309 268.252,311.826 267.769 C 311.047 266.990,308.429 267.049,307.526 267.867 C 307.121 268.233,306.297 268.583,305.695 268.645 C 302.619 268.958,291.552 270.474,289.869 270.812 C 288.808 271.025,287.063 271.200,285.993 271.200 C 284.923 271.200,283.936 271.380,283.800 271.600 C 283.664 271.820,282.404 272.000,281.000 272.000 C 279.596 272.000,278.336 272.180,278.200 272.400 C 278.064 272.620,276.624 272.800,275.000 272.800 C 273.376 272.800,271.936 272.980,271.800 273.200 C 271.664 273.420,270.224 273.600,268.600 273.600 C 266.976 273.600,265.550 273.757,265.431 273.949 C 265.312 274.142,263.727 274.404,261.908 274.532 C 260.088 274.661,257.160 274.960,255.400 275.198 C 253.640 275.436,250.850 275.812,249.200 276.033 C 247.550 276.255,243.649 276.653,240.531 276.918 C 237.413 277.183,234.728 277.535,234.564 277.700 C 234.188 278.079,229.200 278.098,229.200 277.720 C 229.200 277.220,233.765 268.204,234.087 268.067 C 234.259 267.993,234.400 267.628,234.400 267.255 C 234.400 266.882,234.760 266.317,235.200 266.000 C 235.640 265.683,236.000 265.103,236.000 264.712 C 236.000 264.320,236.180 264.000,236.400 264.000 C 236.620 264.000,236.800 263.640,236.800 263.200 C 236.800 262.760,236.980 262.400,237.200 262.400 C 237.420 262.400,237.600 262.055,237.600 261.633 C 237.600 261.212,237.741 260.807,237.913 260.733 C 238.197 260.613,239.929 257.181,243.332 250.000 C 244.009 248.570,244.817 247.094,245.126 246.720 C 245.435 246.346,246.793 243.826,248.145 241.120 L 250.602 236.200 258.372 236.091 C 263.279 236.022,266.293 236.133,266.551 236.391 C 266.799 236.639,269.756 236.800,274.056 236.800 C 278.356 236.800,281.250 236.958,281.400 237.200 C 281.550 237.443,284.463 237.600,288.800 237.600 C 293.137 237.600,296.050 237.757,296.200 238.000 C 296.352 238.246,299.557 238.395,304.524 238.387 C 312.901 238.374,314.000 238.173,314.000 236.656 C 314.000 236.295,314.180 236.000,314.400 236.000 C 314.657 236.000,314.800 232.008,314.800 224.824 C 314.800 217.804,314.949 213.555,315.200 213.400 C 315.451 213.245,315.600 209.004,315.600 202.000 C 315.600 194.996,315.749 190.755,316.000 190.600 C 316.251 190.445,316.400 186.270,316.400 179.400 C 316.400 172.530,316.549 168.355,316.800 168.200 C 317.051 168.045,317.200 163.804,317.200 156.800 C 317.200 149.796,317.349 145.555,317.600 145.400 C 317.851 145.245,318.000 141.137,318.000 134.400 C 318.000 127.663,318.149 123.555,318.400 123.400 C 318.654 123.243,318.800 118.270,318.800 109.800 C 318.800 101.330,318.946 96.357,319.200 96.200 C 320.490 95.403,319.609 93.200,318.000 93.200 C 316.570 93.200,316.400 93.304,316.400 94.176 C 316.400 94.713,316.220 95.264,316.000 95.400 C 315.780 95.536,315.600 96.087,315.600 96.624 C 315.600 97.161,315.389 97.600,315.131 97.600 C 314.191 97.600,313.200 98.940,313.200 100.213 C 313.200 100.922,312.922 101.733,312.583 102.014 C 312.243 102.296,311.506 103.533,310.945 104.763 C 308.528 110.058,307.449 112.083,306.941 112.278 C 306.644 112.392,306.400 112.811,306.400 113.209 C 306.400 113.608,306.259 113.993,306.087 114.067 C 305.915 114.140,304.727 116.316,303.447 118.901 C 302.166 121.487,300.971 123.694,300.791 123.806 C 300.611 123.917,299.355 126.255,298.000 129.000 C 296.645 131.745,295.371 134.095,295.167 134.220 C 294.964 134.346,294.428 135.293,293.975 136.324 C 292.358 140.010,290.617 143.426,289.517 145.072 C 288.903 145.992,288.400 146.937,288.400 147.172 C 288.400 147.407,288.220 147.600,288.000 147.600 C 287.780 147.600,287.600 147.872,287.600 148.205 C 287.600 148.761,286.878 150.322,286.400 150.800 C 285.922 151.278,285.200 152.839,285.200 153.395 C 285.200 153.728,285.020 154.000,284.800 154.000 C 284.580 154.000,284.400 154.248,284.400 154.551 C 284.400 154.854,284.137 155.320,283.816 155.587 C 283.495 155.853,282.137 158.289,280.800 161.000 C 279.463 163.711,278.105 166.147,277.784 166.413 C 277.463 166.680,277.200 167.065,277.200 167.268 C 277.200 167.836,272.410 177.547,272.006 177.796 C 271.811 177.917,271.151 179.047,270.540 180.308 C 269.929 181.568,269.288 182.660,269.115 182.733 C 268.942 182.807,268.800 183.212,268.800 183.633 C 268.800 184.055,268.665 184.401,268.500 184.403 C 268.179 184.406,267.200 186.312,267.200 186.933 C 267.200 187.138,266.877 187.597,266.483 187.953 C 266.089 188.309,264.541 191.030,263.043 194.000 C 261.546 196.970,259.439 201.096,258.360 203.169 C 257.282 205.242,256.400 207.141,256.400 207.389 C 256.400 208.241,255.400 210.001,254.800 210.206 C 254.470 210.318,253.390 212.114,252.400 214.197 C 251.410 216.279,250.465 217.987,250.300 217.992 C 250.135 217.996,250.000 218.349,250.000 218.776 C 250.000 219.384,249.675 219.579,248.500 219.676 L 247.000 219.800 246.881 222.080 C 246.791 223.783,246.362 225.150,245.182 227.480 C 244.314 229.196,243.603 230.844,243.602 231.143 C 243.600 231.832,241.289 236.698,240.830 236.982 C 240.640 237.099,239.257 239.671,237.755 242.697 C 236.253 245.724,234.783 248.449,234.488 248.753 C 234.193 249.056,233.650 250.001,233.282 250.853 C 232.913 251.704,232.474 252.400,232.306 252.400 C 232.138 252.400,232.000 252.760,232.000 253.200 C 232.000 253.640,231.820 254.000,231.600 254.000 C 231.380 254.000,231.200 254.345,231.200 254.767 C 231.200 255.188,231.065 255.593,230.900 255.667 C 230.539 255.827,228.855 258.943,225.633 265.413 C 224.315 268.061,222.778 270.657,222.218 271.183 C 221.658 271.709,221.200 272.356,221.200 272.621 C 221.200 272.885,220.940 273.318,220.622 273.582 C 220.304 273.845,218.584 277.004,216.800 280.600 C 215.016 284.196,213.333 287.324,213.060 287.550 C 212.787 287.776,212.314 288.600,212.008 289.381 C 211.701 290.161,211.304 290.800,211.125 290.800 C 210.946 290.800,210.800 291.052,210.800 291.360 C 210.800 292.014,207.907 297.776,207.094 298.742 C 206.789 299.104,205.139 302.237,203.426 305.704 C 201.713 309.171,200.171 312.095,199.998 312.201 C 199.826 312.307,198.459 314.871,196.960 317.897 C 195.461 320.924,194.132 323.490,194.008 323.600 C 193.439 324.103,192.400 326.032,192.400 326.586 C 192.400 326.924,192.220 327.200,192.000 327.200 C 191.780 327.200,191.600 327.465,191.600 327.788 C 191.600 328.111,191.212 329.056,190.738 329.888 C 188.952 333.022,187.600 335.695,187.600 336.094 C 187.600 336.321,187.277 336.797,186.883 337.153 C 186.489 337.509,184.939 340.276,183.440 343.303 C 181.941 346.329,180.561 348.900,180.373 349.016 C 180.079 349.198,177.393 354.569,174.979 359.800 C 174.573 360.680,173.917 361.691,173.520 362.047 C 173.124 362.403,172.800 362.988,172.800 363.347 C 172.800 363.706,172.620 364.000,172.400 364.000 C 172.180 364.000,172.000 364.360,172.000 364.800 C 172.000 365.240,171.865 365.601,171.700 365.603 C 171.341 365.607,170.400 367.544,170.400 368.280 C 170.400 368.566,170.241 368.800,170.047 368.800 C 169.852 368.800,169.599 369.160,169.484 369.600 C 169.258 370.463,167.074 370.766,166.600 370.000 C 166.464 369.780,165.744 369.600,165.000 369.600 C 164.256 369.600,163.536 369.420,163.400 369.200 C 163.264 368.980,162.724 368.800,162.200 368.800 C 161.676 368.800,161.136 368.620,161.000 368.400 C 160.864 368.180,160.324 368.000,159.800 368.000 C 159.276 368.000,158.736 367.820,158.600 367.600 C 158.464 367.380,157.744 367.200,157.000 367.200 C 156.256 367.200,155.536 367.020,155.400 366.800 C 155.264 366.580,154.724 366.400,154.200 366.400 C 153.676 366.400,153.136 366.220,153.000 366.000 C 152.864 365.780,152.324 365.600,151.800 365.600 C 151.276 365.600,150.736 365.420,150.600 365.200 C 150.464 364.980,149.744 364.800,149.000 364.800 C 148.256 364.800,147.536 364.620,147.400 364.400 C 147.264 364.180,146.801 364.000,146.371 364.000 C 145.941 364.000,145.277 363.841,144.895 363.647 C 143.376 362.874,142.103 362.434,140.000 361.953 C 138.790 361.676,137.620 361.320,137.400 361.162 C 137.180 361.004,136.143 360.747,135.095 360.591 C 134.047 360.435,133.092 360.148,132.971 359.954 C 132.851 359.759,132.453 359.600,132.088 359.600 C 131.722 359.600,130.157 359.222,128.611 358.759 C 123.726 357.299,122.905 356.631,124.216 355.182 C 124.959 354.361,125.702 353.173,126.341 351.784 C 126.548 351.335,127.005 350.727,127.358 350.435 C 127.711 350.142,128.000 349.682,128.000 349.413 C 128.000 349.144,128.360 348.598,128.800 348.200 C 129.240 347.802,129.600 347.262,129.600 347.000 C 129.600 346.738,129.960 346.198,130.400 345.800 C 130.840 345.402,131.200 344.862,131.200 344.600 C 131.200 344.338,131.560 343.798,132.000 343.400 C 132.440 343.002,132.800 342.462,132.800 342.200 C 132.800 341.938,133.160 341.398,133.600 341.000 C 134.040 340.602,134.400 340.062,134.400 339.800 C 134.400 339.538,134.760 338.998,135.200 338.600 C 135.640 338.202,136.000 337.662,136.000 337.400 C 136.000 337.138,136.360 336.598,136.800 336.200 C 137.240 335.802,137.600 335.262,137.600 335.000 C 137.600 334.738,137.960 334.198,138.400 333.800 C 138.840 333.402,139.200 332.862,139.200 332.600 C 139.200 332.338,139.560 331.798,140.000 331.400 C 140.440 331.002,140.800 330.516,140.800 330.321 C 140.800 330.126,141.160 329.580,141.600 329.108 C 142.040 328.636,142.400 328.013,142.400 327.725 C 142.400 327.436,142.562 327.200,142.761 327.200 C 142.959 327.200,143.310 326.660,143.540 326.000 C 143.770 325.340,144.139 324.800,144.360 324.800 C 144.582 324.800,145.061 324.170,145.427 323.400 C 145.792 322.630,146.251 322.000,146.446 322.000 C 146.641 322.000,146.800 321.758,146.800 321.462 C 146.800 321.166,147.160 320.598,147.600 320.200 C 148.040 319.802,148.400 319.262,148.400 319.000 C 148.400 318.738,148.760 318.198,149.200 317.800 C 149.640 317.402,150.000 316.868,150.000 316.613 C 150.000 316.359,150.315 315.802,150.700 315.375 C 151.085 314.949,151.655 314.105,151.968 313.500 C 152.280 312.895,152.685 312.400,152.868 312.400 C 153.050 312.400,153.200 312.158,153.200 311.862 C 153.200 311.566,153.560 310.998,154.000 310.600 C 154.440 310.202,154.800 309.662,154.800 309.400 C 154.800 309.138,155.160 308.598,155.600 308.200 C 156.040 307.802,156.400 307.256,156.400 306.987 C 156.400 306.718,156.689 306.258,157.042 305.965 C 157.395 305.673,157.852 305.065,158.059 304.616 C 158.687 303.252,159.436 302.044,160.136 301.271 C 160.501 300.867,160.800 300.354,160.800 300.130 C 160.800 299.907,161.160 299.398,161.600 299.000 C 162.040 298.602,162.400 298.062,162.400 297.800 C 162.400 297.538,162.760 296.998,163.200 296.600 C 163.640 296.202,164.000 295.662,164.000 295.400 C 164.000 295.138,164.360 294.598,164.800 294.200 C 165.240 293.802,165.600 293.262,165.600 293.000 C 165.600 292.738,165.960 292.198,166.400 291.800 C 166.840 291.402,167.200 290.862,167.200 290.600 C 167.200 290.338,167.560 289.798,168.000 289.400 C 168.440 289.002,168.800 288.462,168.800 288.200 C 168.800 287.938,169.160 287.398,169.600 287.000 C 170.040 286.602,170.400 286.062,170.400 285.800 C 170.400 285.538,170.760 284.998,171.200 284.600 C 171.640 284.202,172.000 283.634,172.000 283.338 C 172.000 283.042,172.150 282.800,172.332 282.800 C 172.515 282.800,172.920 282.305,173.232 281.700 C 173.545 281.095,174.340 279.816,175.000 278.857 C 176.827 276.203,177.564 275.058,177.869 274.400 C 178.022 274.070,178.474 273.565,178.874 273.277 C 179.273 272.990,179.600 272.523,179.600 272.239 C 179.600 271.956,179.960 271.398,180.400 271.000 C 180.840 270.602,181.200 269.987,181.200 269.634 C 181.200 269.281,181.560 268.768,182.000 268.493 C 182.440 268.218,182.800 267.753,182.800 267.459 C 182.800 267.165,183.160 266.598,183.600 266.200 C 184.040 265.802,184.400 265.316,184.400 265.121 C 184.400 264.722,209.468 226.900,210.281 226.071 C 210.567 225.781,210.800 225.286,210.800 224.971 C 210.800 224.657,210.950 224.400,211.132 224.400 C 211.315 224.400,211.720 223.905,212.032 223.300 C 212.345 222.695,212.915 221.851,213.300 221.425 C 213.685 220.998,214.000 220.413,214.000 220.125 C 214.000 219.836,214.180 219.600,214.400 219.600 C 214.620 219.600,214.800 219.328,214.800 218.996 C 214.800 218.664,215.340 217.828,216.000 217.137 C 216.660 216.446,217.200 215.638,217.200 215.341 C 217.200 215.043,217.350 214.800,217.532 214.800 C 217.715 214.800,218.120 214.305,218.432 213.700 C 218.744 213.095,219.104 212.510,219.232 212.400 C 219.360 212.290,220.186 211.120,221.068 209.800 C 226.097 202.273,233.456 191.235,233.800 190.702 C 234.020 190.361,234.785 189.244,235.500 188.221 C 236.215 187.197,236.804 186.234,236.809 186.080 C 236.814 185.926,237.170 185.350,237.600 184.800 C 238.092 184.171,238.386 183.168,238.391 182.100 C 238.396 181.165,238.580 180.400,238.800 180.400 C 239.020 180.400,239.200 180.056,239.200 179.636 C 239.200 179.215,239.740 178.417,240.400 177.861 C 241.060 177.306,241.600 176.610,241.600 176.315 C 241.600 175.699,243.365 174.064,244.925 173.236 C 245.509 172.926,246.087 172.357,246.209 171.973 C 246.331 171.588,246.694 171.173,247.015 171.050 C 247.337 170.926,247.600 170.577,247.600 170.275 C 247.600 169.972,247.960 169.398,248.400 169.000 C 248.840 168.602,249.200 168.142,249.200 167.978 C 249.200 167.815,252.665 162.469,256.900 156.099 C 261.135 149.729,264.780 144.241,265.000 143.905 C 265.220 143.568,267.020 140.891,269.000 137.955 C 270.980 135.020,272.690 132.423,272.800 132.185 C 272.910 131.947,273.233 131.493,273.519 131.176 C 274.729 129.832,280.201 121.820,280.752 120.584 C 280.953 120.135,281.405 119.527,281.758 119.235 C 282.111 118.942,282.400 118.482,282.400 118.213 C 282.400 117.944,282.760 117.398,283.200 117.000 C 283.640 116.602,284.000 116.068,284.000 115.813 C 284.000 115.559,284.315 115.002,284.700 114.575 C 285.085 114.149,285.655 113.305,285.968 112.700 C 286.280 112.095,286.685 111.600,286.868 111.600 C 287.050 111.600,287.200 111.364,287.200 111.075 C 287.200 110.787,287.515 110.202,287.900 109.775 C 288.285 109.349,288.855 108.505,289.168 107.900 C 289.480 107.295,289.885 106.800,290.068 106.800 C 290.250 106.800,290.400 106.564,290.400 106.275 C 290.400 105.987,290.715 105.402,291.100 104.975 C 291.485 104.549,292.055 103.705,292.368 103.100 C 292.680 102.495,293.085 102.000,293.268 102.000 C 293.450 102.000,293.600 101.784,293.600 101.521 C 293.600 101.257,294.410 99.834,295.400 98.358 C 296.390 96.883,297.200 95.468,297.200 95.214 C 297.200 94.960,297.342 94.840,297.515 94.948 C 297.688 95.055,298.082 94.570,298.391 93.871 C 298.699 93.172,299.142 92.395,299.375 92.145 C 300.202 91.258,301.200 89.989,301.200 89.824 C 301.200 89.377,305.355 83.200,305.655 83.200 C 305.845 83.200,306.000 82.940,306.000 82.623 C 306.000 82.305,306.322 81.810,306.715 81.523 C 307.108 81.235,307.963 80.145,308.615 79.101 C 309.267 78.056,309.935 77.201,310.100 77.201 C 310.265 77.200,310.400 76.930,310.400 76.600 C 310.400 76.270,310.582 76.000,310.805 76.000 C 311.028 76.000,311.651 75.055,312.189 73.900 C 312.727 72.745,313.719 70.900,314.393 69.800 C 315.067 68.700,315.731 67.530,315.869 67.200 C 316.006 66.870,316.426 66.240,316.802 65.800 C 317.177 65.360,317.823 64.370,318.236 63.600 C 319.217 61.773,320.812 60.000,321.475 60.000 C 321.875 60.000,322.000 59.005,322.000 55.824 C 322.000 53.471,322.175 51.539,322.400 51.400 C 322.620 51.264,322.800 50.004,322.800 48.600 C 322.800 47.196,322.980 45.936,323.200 45.800 C 323.781 45.441,323.710 38.670,323.120 38.080 C 322.542 37.502,318.800 37.433,318.800 38.000 C 318.800 38.220,318.440 38.400,318.000 38.400 C 317.560 38.400,317.200 38.580,317.200 38.800 C 317.200 39.020,316.977 39.200,316.704 39.200 C 316.430 39.200,314.945 39.814,313.404 40.565 C 311.862 41.315,309.700 42.317,308.600 42.790 C 307.500 43.264,305.191 44.360,303.469 45.226 C 301.747 46.092,299.845 46.800,299.244 46.800 C 298.158 46.800,296.000 48.578,296.000 49.473 C 296.000 49.709,295.711 50.142,295.358 50.435 C 295.005 50.727,294.548 51.335,294.341 51.784 C 293.782 52.999,293.040 54.229,292.400 55.000 C 292.087 55.377,291.644 56.010,291.416 56.407 C 291.187 56.805,290.415 57.964,289.700 58.985 C 288.985 60.005,288.400 61.011,288.400 61.220 C 288.400 61.429,288.250 61.600,288.068 61.600 C 287.885 61.600,287.480 62.095,287.168 62.700 C 286.855 63.305,286.285 64.149,285.900 64.575 C 285.515 65.002,285.200 65.547,285.200 65.787 C 285.200 66.027,284.840 66.483,284.400 66.800 C 283.960 67.117,283.600 67.609,283.600 67.892 C 283.600 68.175,283.060 68.972,282.400 69.663 C 281.740 70.354,281.200 71.122,281.200 71.371 C 281.200 71.620,280.840 72.083,280.400 72.400 C 279.960 72.717,279.600 73.222,279.600 73.521 C 279.600 73.820,278.970 74.834,278.200 75.774 C 277.430 76.714,276.800 77.661,276.800 77.879 C 276.800 78.097,276.440 78.602,276.000 79.000 C 275.560 79.398,275.200 79.938,275.200 80.200 C 275.200 80.462,274.840 81.002,274.400 81.400 C 273.960 81.798,273.600 82.338,273.600 82.600 C 273.600 82.862,273.240 83.402,272.800 83.800 C 272.360 84.198,272.000 84.738,272.000 85.000 C 272.000 85.262,271.640 85.802,271.200 86.200 C 270.760 86.598,270.400 87.138,270.400 87.400 C 270.400 87.662,270.040 88.202,269.600 88.600 C 269.160 88.998,268.800 89.538,268.800 89.800 C 268.800 90.062,268.440 90.602,268.000 91.000 C 267.560 91.398,267.200 91.938,267.200 92.200 C 267.200 92.462,266.840 93.002,266.400 93.400 C 265.960 93.798,265.600 94.338,265.600 94.600 C 265.600 94.862,265.240 95.402,264.800 95.800 C 264.360 96.198,264.000 96.744,264.000 97.013 C 264.000 97.282,263.727 97.729,263.393 98.006 C 262.698 98.583,257.200 106.724,257.200 107.177 C 257.200 107.341,256.840 107.802,256.400 108.200 C 255.960 108.598,255.600 109.138,255.600 109.400 C 255.600 109.662,255.240 110.202,254.800 110.600 C 254.360 110.998,254.000 111.551,254.000 111.829 C 254.000 112.106,253.855 112.393,253.677 112.467 C 253.209 112.659,250.800 116.265,250.800 116.772 C 250.800 117.007,250.650 117.200,250.468 117.200 C 250.285 117.200,249.880 117.695,249.568 118.300 C 249.255 118.905,248.685 119.749,248.300 120.175 C 247.915 120.602,247.600 121.147,247.600 121.387 C 247.600 121.627,247.240 122.083,246.800 122.400 C 246.360 122.717,246.000 123.202,246.000 123.477 C 246.000 123.752,244.830 125.511,243.400 127.385 C 241.970 129.259,240.800 130.946,240.800 131.134 C 240.800 131.322,240.440 131.802,240.000 132.200 C 239.560 132.598,239.200 133.138,239.200 133.400 C 239.200 133.662,238.840 134.202,238.400 134.600 C 237.960 134.998,237.600 135.616,237.600 135.974 C 237.600 136.331,237.240 136.883,236.800 137.200 C 236.360 137.517,236.000 137.979,236.000 138.226 C 236.000 138.474,235.640 139.002,235.200 139.400 C 234.760 139.798,234.400 140.338,234.400 140.600 C 234.400 140.862,234.040 141.402,233.600 141.800 C 233.160 142.198,232.800 142.738,232.800 143.000 C 232.800 143.262,232.440 143.802,232.000 144.200 C 231.560 144.598,231.200 145.138,231.200 145.400 C 231.200 145.662,230.840 146.202,230.400 146.600 C 229.960 146.998,229.600 147.538,229.600 147.800 C 229.600 148.062,229.240 148.602,228.800 149.000 C 228.360 149.398,228.000 149.869,228.000 150.047 C 228.000 150.224,227.010 151.823,225.800 153.600 C 224.590 155.377,223.600 156.970,223.600 157.141 C 223.600 157.311,223.060 157.968,222.400 158.600 C 221.740 159.232,221.200 159.958,221.200 160.213 C 221.200 160.468,220.840 161.002,220.400 161.400 C 219.960 161.798,219.600 162.366,219.600 162.662 C 219.600 162.958,219.450 163.200,219.268 163.200 C 219.085 163.200,218.680 163.695,218.368 164.300 C 218.055 164.905,217.485 165.749,217.100 166.175 C 216.715 166.602,216.400 167.187,216.400 167.475 C 216.400 167.764,216.250 168.000,216.068 168.000 C 215.885 168.000,215.481 168.495,215.170 169.100 C 214.860 169.705,214.289 170.491,213.903 170.847 C 213.516 171.203,213.200 171.773,213.200 172.114 C 213.200 172.454,213.043 172.793,212.852 172.867 C 212.543 172.985,210.130 176.449,208.964 178.448 C 208.725 178.858,208.267 179.511,207.947 179.897 C 207.627 180.284,207.118 181.095,206.815 181.700 C 206.512 182.305,206.115 182.800,205.932 182.800 C 205.750 182.800,205.600 183.042,205.600 183.338 C 205.600 183.634,205.240 184.202,204.800 184.600 C 204.360 184.998,204.000 185.532,204.000 185.787 C 204.000 186.042,203.460 186.768,202.800 187.400 C 202.140 188.032,201.600 188.758,201.600 189.013 C 201.600 189.268,201.240 189.802,200.800 190.200 C 200.360 190.598,200.000 191.138,200.000 191.400 C 200.000 191.662,199.640 192.202,199.200 192.600 C 198.760 192.998,198.400 193.538,198.400 193.800 C 198.400 194.062,198.040 194.602,197.600 195.000 C 197.160 195.398,196.800 195.938,196.800 196.200 C 196.800 196.462,196.440 197.002,196.000 197.400 C 195.560 197.798,195.200 198.307,195.200 198.530 C 195.200 198.754,194.901 199.267,194.536 199.671 C 193.836 200.444,193.087 201.652,192.459 203.016 C 192.252 203.465,191.795 204.073,191.442 204.365 C 191.089 204.658,190.800 205.118,190.800 205.387 C 190.800 205.656,190.440 206.202,190.000 206.600 C 189.560 206.998,189.200 207.538,189.200 207.800 C 189.200 208.062,188.840 208.602,188.400 209.000 C 187.960 209.398,187.600 209.938,187.600 210.200 C 187.600 210.462,187.240 211.002,186.800 211.400 C 186.360 211.798,186.000 212.338,186.000 212.600 C 186.000 212.862,185.640 213.402,185.200 213.800 C 184.760 214.198,184.400 214.766,184.400 215.062 C 184.400 215.358,184.241 215.600,184.046 215.600 C 183.851 215.600,183.405 216.185,183.056 216.900 C 182.706 217.615,181.966 218.624,181.410 219.142 C 180.855 219.660,180.400 220.335,180.400 220.642 C 180.400 220.949,180.250 221.200,180.068 221.200 C 179.885 221.200,179.480 221.695,179.168 222.300 C 178.856 222.905,178.500 223.490,178.377 223.600 C 178.120 223.829,173.623 230.514,172.964 231.646 C 172.725 232.058,172.267 232.711,171.947 233.097 C 171.627 233.484,171.118 234.295,170.815 234.900 C 170.512 235.505,170.115 236.000,169.932 236.000 C 169.750 236.000,169.600 236.242,169.600 236.538 C 169.600 236.834,169.240 237.402,168.800 237.800 C 168.360 238.198,168.000 238.738,168.000 239.000 C 168.000 239.262,167.640 239.802,167.200 240.200 C 166.760 240.598,166.400 241.138,166.400 241.400 C 166.400 241.662,166.040 242.202,165.600 242.600 C 165.160 242.998,164.800 243.538,164.800 243.800 C 164.800 244.062,164.440 244.602,164.000 245.000 C 163.560 245.398,163.200 245.911,163.200 246.140 C 163.200 246.369,162.727 247.050,162.150 247.653 C 161.112 248.736,160.390 249.826,159.659 251.416 C 159.452 251.865,158.995 252.473,158.642 252.765 C 158.289 253.058,158.000 253.518,158.000 253.787 C 158.000 254.056,157.640 254.602,157.200 255.000 C 156.760 255.398,156.400 255.938,156.400 256.200 C 156.400 256.462,156.040 257.002,155.600 257.400 C 155.160 257.798,154.800 258.338,154.800 258.600 C 154.800 258.862,154.440 259.402,154.000 259.800 C 153.560 260.198,153.200 260.738,153.200 261.000 C 153.200 261.262,152.840 261.802,152.400 262.200 C 151.960 262.598,151.600 263.138,151.600 263.400 C 151.600 263.662,151.240 264.202,150.800 264.600 C 150.360 264.998,150.000 265.538,150.000 265.800 C 150.000 266.062,149.640 266.602,149.200 267.000 C 148.760 267.398,148.400 267.938,148.400 268.200 C 148.400 268.462,148.040 269.002,147.600 269.400 C 147.160 269.798,146.800 270.338,146.800 270.600 C 146.800 270.862,146.440 271.402,146.000 271.800 C 145.560 272.198,145.200 272.766,145.200 273.062 C 145.200 273.358,145.041 273.600,144.846 273.600 C 144.651 273.600,144.193 274.228,143.829 274.995 C 143.465 275.762,142.815 276.578,142.384 276.809 C 141.953 277.039,141.600 277.582,141.600 278.014 C 141.600 278.446,141.462 278.800,141.294 278.800 C 141.126 278.800,140.544 279.520,140.000 280.400 C 139.456 281.280,138.874 282.000,138.706 282.000 C 138.538 282.000,138.400 282.236,138.400 282.525 C 138.400 282.813,138.085 283.398,137.700 283.825 C 137.315 284.251,136.745 285.095,136.432 285.700 C 136.120 286.305,135.715 286.800,135.532 286.800 C 135.350 286.800,135.200 287.048,135.200 287.351 C 135.200 287.654,134.927 288.129,134.593 288.406 C 134.259 288.683,133.698 289.515,133.347 290.255 C 132.996 290.995,132.549 291.600,132.354 291.600 C 132.159 291.600,132.000 291.842,132.000 292.138 C 132.000 292.434,131.640 293.002,131.200 293.400 C 130.760 293.798,130.400 294.338,130.400 294.600 C 130.400 294.862,130.040 295.402,129.600 295.800 C 129.160 296.198,128.800 296.678,128.800 296.866 C 128.800 297.054,128.170 298.105,127.400 299.200 C 126.630 300.295,126.000 301.346,126.000 301.534 C 126.000 301.722,125.640 302.202,125.200 302.600 C 124.760 302.998,124.400 303.538,124.400 303.800 C 124.400 304.062,124.040 304.602,123.600 305.000 C 123.160 305.398,122.800 305.932,122.800 306.187 C 122.800 306.442,122.260 307.168,121.600 307.800 C 120.940 308.432,120.400 309.158,120.400 309.413 C 120.400 309.668,120.040 310.202,119.600 310.600 C 119.160 310.998,118.800 311.538,118.800 311.800 C 118.800 312.062,118.440 312.602,118.000 313.000 C 117.560 313.398,117.200 313.938,117.200 314.200 C 117.200 314.462,116.840 315.002,116.400 315.400 C 115.960 315.798,115.600 316.338,115.600 316.600 C 115.600 316.862,115.240 317.402,114.800 317.800 C 114.360 318.198,114.000 318.738,114.000 319.000 C 114.000 319.262,113.640 319.802,113.200 320.200 C 112.760 320.598,112.400 321.138,112.400 321.400 C 112.400 321.662,112.040 322.202,111.600 322.600 C 111.160 322.998,110.800 323.503,110.800 323.721 C 110.800 323.939,110.170 324.886,109.400 325.826 C 108.630 326.766,108.000 327.818,108.000 328.164 C 108.000 328.510,107.640 329.018,107.200 329.293 C 106.760 329.568,106.400 330.043,106.400 330.349 C 106.400 330.656,106.084 331.197,105.697 331.553 C 105.311 331.909,104.740 332.695,104.430 333.300 C 104.119 333.905,103.715 334.400,103.532 334.400 C 103.350 334.400,103.199 334.625,103.198 334.900 C 103.197 335.175,102.702 335.940,102.098 336.600 C 101.494 337.260,100.745 338.295,100.432 338.900 C 100.120 339.505,99.715 340.000,99.532 340.000 C 99.350 340.000,99.200 340.242,99.200 340.538 C 99.200 340.834,98.840 341.402,98.400 341.800 C 97.960 342.198,97.600 342.766,97.600 343.062 C 97.600 344.260,93.224 342.593,90.409 340.322 C 89.644 339.705,88.742 339.200,88.405 339.200 C 88.068 339.200,87.568 338.840,87.293 338.400 C 87.018 337.960,86.435 337.600,85.997 337.600 C 85.558 337.600,85.200 337.420,85.200 337.200 C 85.200 336.980,84.840 336.800,84.400 336.800 C 83.960 336.800,83.600 336.620,83.600 336.400 C 83.600 336.180,83.364 336.000,83.075 336.000 C 82.787 336.000,82.202 335.685,81.775 335.299 C 81.349 334.914,80.100 334.159,79.000 333.620 C 77.900 333.082,76.688 332.382,76.307 332.065 C 75.926 331.748,74.914 331.109,74.058 330.645 C 73.202 330.180,71.197 329.080,69.602 328.200 C 68.008 327.320,65.639 326.038,64.339 325.350 C 63.038 324.663,61.665 323.838,61.287 323.518 C 60.909 323.197,59.933 322.629,59.117 322.256 C 58.301 321.884,57.529 321.409,57.401 321.202 C 57.274 320.995,55.995 320.266,54.559 319.581 C 53.124 318.896,51.852 318.080,51.732 317.768 C 51.612 317.455,51.264 317.200,50.957 317.200 C 49.946 317.200,53.846 311.513,55.300 310.867 C 55.465 310.793,55.602 310.523,55.605 310.267 C 55.607 310.010,56.373 308.990,57.307 308.000 C 58.240 307.010,59.708 305.324,60.568 304.252 C 61.428 303.181,62.552 301.884,63.066 301.371 C 63.580 300.857,64.000 300.263,64.000 300.052 C 64.000 299.840,64.720 298.985,65.600 298.151 C 66.480 297.317,67.200 296.439,67.200 296.199 C 67.200 295.959,67.920 295.059,68.800 294.200 C 69.680 293.341,70.400 292.441,70.400 292.200 C 70.400 291.959,71.120 291.059,72.000 290.200 C 72.880 289.341,73.600 288.439,73.600 288.197 C 73.600 287.955,74.230 287.146,75.000 286.400 C 75.770 285.654,76.400 284.845,76.400 284.603 C 76.400 284.361,77.120 283.459,78.000 282.600 C 78.880 281.741,79.600 280.841,79.600 280.600 C 79.600 280.359,80.320 279.459,81.200 278.600 C 82.080 277.741,82.800 276.841,82.800 276.600 C 82.800 276.359,83.520 275.459,84.400 274.600 C 85.280 273.741,86.000 272.841,86.000 272.600 C 86.000 272.359,86.720 271.459,87.600 270.600 C 88.480 269.741,89.200 268.839,89.200 268.597 C 89.200 268.355,89.830 267.546,90.600 266.800 C 91.370 266.054,92.000 265.245,92.000 265.003 C 92.000 264.761,92.720 263.859,93.600 263.000 C 94.480 262.141,95.200 261.241,95.200 261.000 C 95.200 260.759,95.920 259.859,96.800 259.000 C 97.680 258.141,98.400 257.241,98.400 257.000 C 98.400 256.759,99.120 255.859,100.000 255.000 C 100.880 254.141,101.600 253.241,101.600 253.000 C 101.600 252.759,102.320 251.859,103.200 251.000 C 104.080 250.141,104.803 249.249,104.807 249.019 C 104.810 248.788,105.530 247.893,106.407 247.030 C 107.283 246.166,108.000 245.256,108.000 245.008 C 108.000 244.760,108.630 243.946,109.400 243.200 C 110.170 242.454,110.800 241.671,110.800 241.460 C 110.800 241.249,111.520 240.391,112.400 239.554 C 113.280 238.717,114.000 237.783,114.000 237.478 C 114.000 237.173,114.356 236.602,114.791 236.209 C 115.225 235.815,115.480 235.329,115.356 235.129 C 115.029 234.600,116.009 233.562,116.545 233.869 C 116.795 234.011,116.865 233.979,116.699 233.797 C 116.371 233.434,117.491 232.000,118.103 232.000 C 118.699 232.000,123.600 226.870,123.600 226.246 C 123.600 225.938,124.410 224.786,125.400 223.684 C 126.390 222.583,127.200 221.516,127.200 221.312 C 127.200 221.108,127.917 220.234,128.793 219.370 C 129.670 218.507,130.390 217.590,130.393 217.334 C 130.397 217.077,131.120 216.185,132.000 215.351 C 132.880 214.517,133.600 213.639,133.600 213.399 C 133.600 213.159,134.320 212.259,135.200 211.400 C 136.080 210.541,136.800 209.669,136.800 209.463 C 136.800 209.109,137.279 208.511,141.209 203.955 C 142.084 202.941,142.800 201.942,142.800 201.736 C 142.800 201.531,143.520 200.659,144.400 199.800 C 145.280 198.941,146.000 198.041,146.000 197.800 C 146.000 197.559,146.720 196.659,147.600 195.800 C 148.480 194.941,149.200 194.041,149.200 193.800 C 149.200 193.559,149.920 192.659,150.800 191.800 C 151.680 190.941,152.400 190.041,152.400 189.800 C 152.400 189.559,153.120 188.659,154.000 187.800 C 154.880 186.941,155.600 186.069,155.600 185.863 C 155.600 185.509,156.079 184.911,160.009 180.355 C 160.884 179.341,161.600 178.342,161.600 178.136 C 161.600 177.931,162.320 177.059,163.200 176.200 C 164.080 175.341,164.800 174.441,164.800 174.200 C 164.800 173.959,165.520 173.059,166.400 172.200 C 167.280 171.341,168.000 170.441,168.000 170.200 C 168.000 169.959,168.720 169.059,169.600 168.200 C 170.480 167.341,171.200 166.468,171.200 166.260 C 171.200 166.053,171.965 165.014,172.900 163.951 C 175.763 160.697,177.200 158.916,177.200 158.620 C 177.200 158.464,177.920 157.603,178.800 156.705 C 179.680 155.807,180.400 154.910,180.400 154.710 C 180.400 154.511,181.300 153.471,182.400 152.400 C 183.500 151.329,184.400 150.246,184.400 149.995 C 184.400 149.743,185.120 148.846,186.000 148.000 C 186.880 147.154,187.600 146.300,187.600 146.102 C 187.600 145.903,188.317 145.034,189.193 144.170 C 190.070 143.307,190.790 142.411,190.793 142.181 C 190.797 141.950,191.424 141.140,192.187 140.381 C 192.950 139.621,193.580 138.812,193.587 138.581 C 193.594 138.351,194.320 137.459,195.200 136.600 C 196.080 135.741,196.800 134.848,196.800 134.617 C 196.800 134.385,197.520 133.431,198.400 132.497 C 199.280 131.563,200.000 130.655,200.000 130.480 C 200.000 130.305,200.720 129.459,201.600 128.600 C 202.480 127.741,203.200 126.841,203.200 126.600 C 203.200 126.359,203.920 125.459,204.800 124.600 C 205.680 123.741,206.400 122.839,206.400 122.597 C 206.400 122.355,207.030 121.546,207.800 120.800 C 208.570 120.054,209.200 119.245,209.200 119.003 C 209.200 118.761,209.920 117.859,210.800 117.000 C 211.680 116.141,212.400 115.238,212.400 114.994 C 212.400 114.749,212.907 114.064,213.527 113.470 C 214.148 112.875,214.900 111.763,215.201 110.998 C 215.501 110.233,216.073 109.504,216.473 109.377 C 216.873 109.250,217.200 108.910,217.200 108.622 C 217.200 108.334,217.489 107.858,217.842 107.565 C 218.195 107.273,218.635 106.635,218.819 106.149 C 219.004 105.663,219.648 105.025,220.249 104.732 C 220.851 104.440,221.626 103.719,221.972 103.130 C 222.605 102.052,223.747 100.617,226.500 97.441 C 227.325 96.489,228.000 95.542,228.000 95.336 C 228.000 95.131,228.720 94.259,229.600 93.400 C 230.480 92.541,231.200 91.641,231.200 91.400 C 231.200 91.159,231.920 90.259,232.800 89.400 C 233.680 88.541,234.400 87.641,234.400 87.400 C 234.400 87.159,235.120 86.259,236.000 85.400 C 236.880 84.541,237.600 83.657,237.600 83.436 C 237.600 83.215,238.263 82.354,239.074 81.524 C 239.885 80.694,240.426 79.893,240.277 79.743 C 240.042 79.509,236.565 81.015,236.000 81.595 C 235.890 81.708,234.990 82.219,234.000 82.732 C 233.010 83.244,231.570 83.994,230.800 84.397 C 230.030 84.800,229.130 85.238,228.800 85.371 C 228.470 85.503,226.940 86.314,225.400 87.172 C 223.860 88.030,219.720 90.209,216.200 92.014 C 212.680 93.818,209.530 95.527,209.200 95.810 C 208.870 96.094,206.170 97.537,203.200 99.018 C 200.230 100.499,197.530 101.938,197.200 102.218 C 196.870 102.497,194.080 104.005,191.000 105.569 C 187.920 107.133,184.320 109.008,183.000 109.735 C 181.680 110.462,178.080 112.375,175.000 113.987 C 171.920 115.600,167.354 118.017,164.853 119.359 C 157.939 123.070,155.556 124.331,148.600 127.959 C 145.080 129.795,142.020 131.431,141.800 131.596 C 141.580 131.761,139.150 133.067,136.400 134.499 C 133.650 135.930,129.847 137.934,127.948 138.951 C 125.444 140.292,124.043 140.800,122.848 140.800 L 121.200 140.800 121.200 155.376 C 121.200 164.663,121.055 170.043,120.800 170.200 C 120.580 170.336,120.400 170.876,120.400 171.400 C 120.400 171.924,120.220 172.464,120.000 172.600 C 119.757 172.750,119.600 175.663,119.600 180.000 C 119.600 184.337,119.443 187.250,119.200 187.400 C 118.958 187.549,118.800 190.396,118.800 194.600 C 118.800 198.804,118.642 201.651,118.400 201.800 C 118.159 201.949,118.000 204.730,118.000 208.800 C 118.000 212.870,117.841 215.651,117.600 215.800 C 117.362 215.947,117.200 218.471,117.200 222.024 C 117.200 226.597,117.080 228.000,116.691 228.000 C 116.410 228.000,114.750 229.440,113.000 231.200 C 111.250 232.960,109.630 234.400,109.400 234.400 C 109.170 234.400,107.550 235.840,105.800 237.600 C 104.050 239.360,102.429 240.800,102.198 240.800 C 101.966 240.800,100.617 241.970,99.200 243.400 C 97.783 244.830,96.429 246.000,96.193 246.000 C 95.956 246.000,95.058 246.721,94.198 247.602 C 92.127 249.723,91.919 249.321,91.504 242.400 C 91.327 239.430,91.050 234.840,90.891 232.200 C 90.731 229.560,90.428 227.132,90.218 226.805 C 90.007 226.478,89.794 224.318,89.743 222.005 C 89.553 213.415,89.112 206.400,88.762 206.400 C 88.563 206.400,88.400 204.161,88.400 201.424 C 88.400 198.537,88.232 196.343,88.000 196.200 C 87.768 196.057,87.600 193.863,87.600 190.976 C 87.600 187.925,87.445 186.000,87.200 186.000 C 86.955 186.000,86.800 184.075,86.800 181.024 C 86.800 178.137,86.632 175.943,86.400 175.800 C 86.170 175.658,86.000 173.537,86.000 170.800 C 86.000 168.063,85.830 165.942,85.600 165.800 C 85.380 165.664,85.200 165.216,85.200 164.805 C 85.200 162.671,82.356 162.317,79.819 164.134 C 78.153 165.327,74.183 167.410,67.600 170.543 C 66.610 171.014,65.740 171.535,65.667 171.700 C 65.593 171.865,65.188 172.000,64.767 172.000 C 64.345 172.000,64.000 172.180,64.000 172.400 C 64.000 172.620,63.640 172.800,63.200 172.800 C 62.760 172.800,62.400 172.980,62.400 173.200 C 62.400 173.420,62.040 173.600,61.600 173.600 C 61.160 173.600,60.800 173.736,60.800 173.902 C 60.800 174.069,60.215 174.453,59.500 174.757 C 56.436 176.058,37.788 185.386,37.667 185.679 C 37.593 185.855,37.314 186.000,37.046 186.000 C 36.337 186.000,34.407 186.949,34.403 187.300 C 34.401 187.465,34.040 187.600,33.600 187.600 C 33.160 187.600,32.800 187.780,32.800 188.000 C 32.800 188.220,32.440 188.400,32.000 188.400 C 31.560 188.400,31.200 188.580,31.200 188.800 C 31.200 189.020,30.913 189.200,30.562 189.200 C 30.211 189.200,29.446 189.527,28.862 189.928 C 28.278 190.328,26.720 191.159,25.400 191.775 C 24.080 192.392,20.115 194.314,16.589 196.048 C 13.064 197.782,10.072 199.200,9.942 199.200 C 9.382 199.200,9.316 196.354,9.826 194.169 C 10.130 192.866,10.498 189.190,10.643 186.000 C 10.788 182.810,11.053 180.014,11.231 179.786 C 11.409 179.558,11.590 177.799,11.632 175.876 C 11.675 173.953,11.865 172.284,12.055 172.166 C 12.245 172.049,12.400 170.264,12.400 168.200 C 12.400 166.130,12.579 164.336,12.800 164.200 C 13.020 164.064,13.200 162.444,13.200 160.600 C 13.200 158.756,13.380 157.136,13.600 157.000 C 13.820 156.864,14.000 155.154,14.000 153.200 C 14.000 151.246,14.180 149.536,14.400 149.400 C 14.621 149.264,14.800 147.470,14.800 145.400 C 14.800 143.330,14.979 141.536,15.200 141.400 C 15.420 141.264,15.600 139.734,15.600 138.000 C 15.600 136.266,15.757 134.750,15.948 134.632 C 16.140 134.514,16.378 132.431,16.478 130.004 C 16.684 125.019,16.807 124.810,20.000 123.996 C 23.317 123.152,30.991 120.683,31.800 120.200 C 32.240 119.938,33.590 119.410,34.800 119.027 C 38.112 117.978,42.511 116.398,43.295 115.975 C 43.677 115.769,44.341 115.600,44.771 115.600 C 45.201 115.600,45.664 115.420,45.800 115.200 C 45.936 114.980,46.476 114.800,47.000 114.800 C 47.524 114.800,48.064 114.620,48.200 114.400 C 48.336 114.180,48.817 114.000,49.269 114.000 C 49.721 114.000,50.746 113.666,51.546 113.258 C 53.076 112.477,56.045 111.384,58.400 110.735 C 59.170 110.523,60.340 110.113,61.000 109.824 C 61.660 109.536,63.280 108.978,64.600 108.584 C 65.920 108.191,67.180 107.751,67.400 107.606 C 67.620 107.462,68.610 107.100,69.600 106.802 C 70.590 106.505,71.571 106.112,71.780 105.930 C 71.989 105.749,72.563 105.600,73.056 105.600 C 73.549 105.600,74.064 105.420,74.200 105.200 C 74.336 104.980,74.876 104.800,75.400 104.800 C 75.924 104.800,76.464 104.620,76.600 104.400 C 76.736 104.180,77.467 104.000,78.224 104.000 C 78.981 104.000,79.600 103.820,79.600 103.600 C 79.600 103.380,79.960 103.200,80.400 103.200 C 80.840 103.200,81.200 103.020,81.200 102.800 C 81.200 102.580,81.639 102.400,82.176 102.400 C 82.713 102.400,83.264 102.220,83.400 102.000 C 83.536 101.780,83.997 101.600,84.424 101.600 C 84.851 101.600,85.200 101.420,85.200 101.200 C 85.200 100.980,85.639 100.800,86.176 100.800 C 86.713 100.800,87.264 100.620,87.400 100.400 C 87.536 100.180,88.076 100.000,88.600 100.000 C 89.124 100.000,89.664 99.820,89.800 99.600 C 89.936 99.380,90.476 99.200,91.000 99.200 C 91.524 99.200,92.064 99.020,92.200 98.800 C 92.336 98.580,92.876 98.400,93.400 98.400 C 93.924 98.400,94.464 98.220,94.600 98.000 C 94.736 97.780,95.276 97.600,95.800 97.600 C 96.324 97.600,96.864 97.420,97.000 97.200 C 97.136 96.980,97.591 96.800,98.011 96.800 C 98.432 96.800,99.417 96.440,100.200 96.000 C 100.983 95.560,101.968 95.200,102.389 95.200 C 102.809 95.200,103.264 95.020,103.400 94.800 C 103.536 94.580,103.999 94.400,104.429 94.400 C 104.859 94.400,105.523 94.240,105.905 94.044 C 106.287 93.848,108.760 93.014,111.400 92.192 C 114.040 91.370,116.892 90.360,117.738 89.948 C 118.584 89.537,119.608 89.200,120.014 89.200 C 120.420 89.200,120.864 89.020,121.000 88.800 C 121.136 88.580,121.676 88.400,122.200 88.400 C 122.724 88.400,123.264 88.220,123.400 88.000 C 123.536 87.780,124.076 87.600,124.600 87.600 C 125.124 87.600,125.664 87.420,125.800 87.200 C 125.936 86.980,126.476 86.800,127.000 86.800 C 127.524 86.800,128.064 86.620,128.200 86.400 C 128.336 86.180,128.876 86.000,129.400 86.000 C 129.924 86.000,130.464 85.820,130.600 85.600 C 130.736 85.380,131.287 85.200,131.824 85.200 C 132.361 85.200,132.800 85.020,132.800 84.800 C 132.800 84.580,133.340 84.400,134.000 84.400 C 134.660 84.400,135.201 84.265,135.203 84.100 C 135.207 83.699,137.181 82.800,138.056 82.800 C 138.439 82.800,138.864 82.620,139.000 82.400 C 139.136 82.180,139.676 82.000,140.200 82.000 C 140.724 82.000,141.264 81.820,141.400 81.600 C 141.536 81.380,142.076 81.200,142.600 81.200 C 143.124 81.200,143.664 81.020,143.800 80.800 C 143.936 80.580,144.476 80.400,145.000 80.400 C 145.524 80.400,146.064 80.220,146.200 80.000 C 146.336 79.780,146.876 79.600,147.400 79.600 C 147.924 79.600,148.464 79.420,148.600 79.200 C 148.736 78.980,149.180 78.800,149.586 78.800 C 149.992 78.800,151.016 78.457,151.862 78.037 C 152.708 77.618,154.701 76.887,156.292 76.412 C 157.883 75.937,159.288 75.380,159.416 75.174 C 159.543 74.969,159.976 74.800,160.378 74.800 C 161.222 74.800,165.072 73.698,166.095 73.163 C 166.477 72.963,167.056 72.800,167.382 72.800 C 167.709 72.800,168.566 72.477,169.288 72.081 C 170.010 71.686,171.410 71.129,172.400 70.842 C 173.390 70.556,174.513 70.160,174.895 69.961 C 175.277 69.762,175.941 69.600,176.371 69.600 C 176.801 69.600,177.264 69.420,177.400 69.200 C 177.536 68.980,177.999 68.800,178.429 68.800 C 178.859 68.800,179.568 68.620,180.005 68.400 C 180.442 68.180,181.158 67.820,181.595 67.600 C 182.032 67.380,182.754 67.200,183.200 67.200 C 183.646 67.200,184.323 67.043,184.705 66.850 C 187.798 65.292,188.976 64.800,189.614 64.800 C 190.020 64.800,190.464 64.620,190.600 64.400 C 190.736 64.180,191.276 64.000,191.800 64.000 C 192.324 64.000,192.864 63.820,193.000 63.600 C 193.136 63.380,193.676 63.200,194.200 63.200 C 194.724 63.200,195.264 63.020,195.400 62.800 C 195.536 62.580,196.076 62.400,196.600 62.400 C 197.124 62.400,197.664 62.220,197.800 62.000 C 197.936 61.780,198.476 61.600,199.000 61.600 C 199.524 61.600,200.064 61.420,200.200 61.200 C 200.336 60.980,200.791 60.800,201.211 60.800 C 201.632 60.800,202.617 60.440,203.400 60.000 C 204.183 59.560,205.168 59.200,205.589 59.200 C 206.009 59.200,206.454 59.036,206.578 58.835 C 206.703 58.634,207.538 58.346,208.435 58.194 C 209.332 58.043,210.546 57.665,211.133 57.356 C 211.720 57.046,212.879 56.681,213.709 56.544 C 214.539 56.407,215.314 56.139,215.432 55.947 C 215.551 55.756,216.076 55.600,216.600 55.600 C 217.124 55.600,217.664 55.420,217.800 55.200 C 217.936 54.980,218.391 54.800,218.811 54.800 C 219.232 54.800,220.217 54.440,221.000 54.000 C 221.783 53.560,222.768 53.200,223.189 53.200 C 223.609 53.200,224.064 53.020,224.200 52.800 C 224.336 52.580,224.876 52.400,225.400 52.400 C 225.924 52.400,226.464 52.220,226.600 52.000 C 226.736 51.780,227.276 51.600,227.800 51.600 C 228.324 51.600,228.864 51.420,229.000 51.200 C 229.136 50.980,229.687 50.800,230.224 50.800 C 230.761 50.800,231.200 50.620,231.200 50.400 C 231.200 50.180,231.740 50.000,232.400 50.000 C 233.060 50.000,233.600 49.820,233.600 49.600 C 233.600 49.380,234.039 49.200,234.576 49.200 C 235.113 49.200,235.664 49.020,235.800 48.800 C 235.936 48.580,236.397 48.400,236.824 48.400 C 237.251 48.400,237.600 48.220,237.600 48.000 C 237.600 47.780,238.039 47.600,238.576 47.600 C 239.113 47.600,239.664 47.420,239.800 47.200 C 239.936 46.980,240.476 46.800,241.000 46.800 C 241.524 46.800,242.064 46.620,242.200 46.400 C 242.336 46.180,242.876 46.000,243.400 46.000 C 243.924 46.000,244.464 45.820,244.600 45.600 C 244.736 45.380,245.276 45.200,245.800 45.200 C 246.324 45.200,246.864 45.020,247.000 44.800 C 247.136 44.580,247.599 44.400,248.029 44.400 C 248.459 44.400,249.123 44.238,249.505 44.039 C 249.887 43.840,251.010 43.448,252.000 43.167 C 252.990 42.886,253.980 42.536,254.200 42.389 C 254.420 42.242,256.670 41.447,259.200 40.622 C 261.730 39.798,264.113 38.961,264.495 38.762 C 264.877 38.563,265.541 38.400,265.971 38.400 C 266.401 38.400,266.864 38.220,267.000 38.000 C 267.136 37.780,267.676 37.600,268.200 37.600 C 268.724 37.600,269.264 37.420,269.400 37.200 C 269.536 36.980,269.991 36.800,270.411 36.800 C 270.832 36.800,271.817 36.440,272.600 36.000 C 273.383 35.560,274.368 35.200,274.789 35.200 C 275.209 35.200,275.664 35.020,275.800 34.800 C 275.936 34.580,276.476 34.400,277.000 34.400 C 277.524 34.400,278.064 34.220,278.200 34.000 C 278.336 33.780,278.876 33.600,279.400 33.600 C 279.924 33.600,280.464 33.420,280.600 33.200 C 280.736 32.980,281.276 32.800,281.800 32.800 C 282.324 32.800,282.864 32.620,283.000 32.400 C 283.136 32.180,283.687 32.000,284.224 32.000 C 284.761 32.000,285.200 31.820,285.200 31.600 C 285.200 31.380,285.740 31.200,286.400 31.200 C 287.060 31.200,287.601 31.065,287.603 30.900 C 287.607 30.539,289.545 29.600,290.285 29.600 C 291.482 29.600,296.000 25.965,296.000 25.002 C 296.000 24.764,296.900 23.683,298.000 22.600 C 299.100 21.517,300.000 20.465,300.000 20.263 C 300.000 20.061,300.826 19.045,301.835 18.005 C 302.844 16.964,303.884 15.683,304.145 15.157 C 304.412 14.619,305.054 14.141,305.610 14.066 C 306.155 13.993,306.771 13.768,306.980 13.566 C 307.189 13.365,309.203 13.200,311.456 13.200 C 313.756 13.200,315.661 13.025,315.800 12.800 C 316.125 12.274,319.880 12.282,320.206 12.809 " stroke="none" fill="#ffffff" fill-rule="evenodd"/></g></svg>